<?xml version="1.0" encoding="iso-8859-1"?>
<!-- Generator: Adobe Illustrator 21.1.0, SVG Export Plug-In . SVG Version: 6.00 Build 0)  -->
<svg version="1.1" id="line" xmlns="http://www.w3.org/2000/svg" xmlns:xlink="http://www.w3.org/1999/xlink" x="0px" y="0px"
	 viewBox="0 0 1625.37 714.61" style="enable-background:new 0 0 1625.37 714.61;" xml:space="preserve">
<g>
	<path style="fill:#E4E4E3;" d="M584.17,638.318h-64.516c-1.813,0-3.289-1.476-3.289-3.289V79.972c0-3.355,2.727-6.085,6.078-6.085
		h58.938c32.281,0,62.554,12.093,85.24,34.052c17.409,16.851,28.863,38.129,33.34,61.422c1.419,7.298,2.119,14.714,2.122,22.371
		c0,0.014,0,0.029,0,0.042c0,0.003,0,0.008,0,0.011c0,0.007,0,0.007,0,0.007v328.62C702.083,585.426,649.188,638.318,584.17,638.318
		z M522.451,74.887c-2.808,0-5.086,2.281-5.086,5.085v555.057c0,1.262,1.027,2.289,2.289,2.289h64.516
		c64.466,0,116.913-52.444,116.913-116.906V191.785c0,0.007,0,0.007,0,0.007c0-0.006,0-0.013,0-0.019c0-0.014,0-0.028,0-0.042
		c-0.004-7.561-0.72-15.001-2.116-22.243c-1.163-5.967-2.812-11.856-4.956-17.733c-0.022-0.06-0.031-0.122-0.03-0.183
		c-5.907-16.039-15.392-30.659-28.055-42.916c-22.499-21.777-52.524-33.771-84.545-33.771H522.451z"/>
</g>
<g>
	<path style="fill:#E4E4E3;" d="M692.446,146.892c-0.275,0-0.499-0.222-0.5-0.498s0.222-0.501,0.498-0.502l3.56-0.016
		c1.033,0,1.792-0.361,2.258-1.073c0.531-0.812,0.603-2.063,0.175-3.042c-1.176-2.694-2.436-5.312-3.852-8.003
		c-1.18-2.195-2.466-4.432-3.82-6.644c-22.391-36.913-61.533-59.334-104.707-59.978H552.86c-2.506,0-4.507,1.923-4.555,4.379
		l-0.046,2.841c-0.005,0.276-0.223,0.518-0.508,0.492c-0.276-0.004-0.496-0.232-0.492-0.508l0.046-2.843
		c0.06-3.007,2.499-5.361,5.555-5.361h33.205c43.527,0.649,82.983,23.25,105.554,60.458c1.363,2.226,2.658,4.479,3.849,6.694
		c1.43,2.717,2.7,5.357,3.885,8.073c0.564,1.291,0.463,2.894-0.254,3.989c-0.455,0.696-1.361,1.525-3.093,1.525l-3.558,0.016
		C692.447,146.892,692.447,146.892,692.446,146.892z"/>
</g>
<g>
	<path style="fill:#E4E4E3;" d="M502.537,582.492c-0.979,0-1.674-0.01-2.056-0.031c-1.401-0.075-2.289-0.771-2.879-2.256
		c-0.163-0.396-0.244-0.797-0.244-1.217v-87.175c0.008-3.339,0.644-6.312,2-9.355c0.607-1.355,1.688-2.344,2.732-3.299
		c1.359-1.243,2.533-2.317,2.533-3.971v-44.723c0-1.654-1.174-2.728-2.533-3.971c-1.045-0.956-2.125-1.944-2.731-3.298
		c-1.357-3.038-1.993-6.008-2.001-9.348V263.705c0.008-3.342,0.644-6.312,2.001-9.35c0.606-1.354,1.687-2.343,2.731-3.298
		c1.359-1.243,2.533-2.317,2.533-3.971v-44.731c0-1.655-1.175-2.729-2.536-3.973c-1.043-0.953-2.122-1.939-2.729-3.288
		c-1.357-3.046-1.993-6.019-2.001-9.356v-78.099c0.009-1.773,1.374-3.213,3.106-3.312l16.4-0.001c0.276,0,0.5,0.224,0.5,0.5
		s-0.224,0.5-0.5,0.5h-16.356c-1.193,0.068-2.144,1.071-2.15,2.283v78.127c0.008,3.192,0.616,6.036,1.914,8.949
		c0.521,1.159,1.521,2.074,2.49,2.958c1.406,1.286,2.861,2.615,2.861,4.711v44.731c0,2.094-1.453,3.423-2.858,4.709
		c-0.969,0.887-1.972,1.804-2.494,2.969c-1.298,2.904-1.905,5.746-1.913,8.942v150.14c0.008,3.194,0.615,6.036,1.913,8.941
		c0.522,1.165,1.525,2.082,2.494,2.969c1.405,1.285,2.858,2.615,2.858,4.709v44.723c0,2.094-1.453,3.423-2.858,4.708
		c-0.969,0.887-1.972,1.804-2.494,2.97c-1.297,2.911-1.905,5.755-1.913,8.948v87.174c0,0.291,0.055,0.559,0.171,0.842
		c0.446,1.123,1.008,1.579,2.006,1.633c0.506,0.026,1.877,0.051,5.533,0.001l0.188-0.002c0.556-0.034,0.789-0.2,1.008-0.743
		l1.951-4.438l0.032-18.349c0.259-1.055,1.019-1.052,1.547-1.054h6.07c0.276,0,0.5,0.224,0.5,0.5s-0.224,0.5-0.5,0.5h-6.033
		c-0.563-0.016-0.548,0.013-0.601,0.222l-0.018,0.25l0.002,18.035c0,0.069-0.015,0.138-0.042,0.201l-1.987,4.521
		c-0.358,0.888-0.929,1.296-1.9,1.354l-0.204,0.003C504.659,582.483,503.47,582.492,502.537,582.492z"/>
</g>
<g>
	<path style="fill:#E4E4E3;" d="M504.97,248.55c-0.001,0-0.003,0-0.004,0l-3.575-0.031c-1.744-0.062-4.31-1.47-4.31-3.289v-41.011
		c0-1.831,2.567-3.235,4.298-3.289l3.587-0.031c0.001,0,0.003,0,0.004,0c0.274,0,0.498,0.221,0.5,0.496
		c0.002,0.276-0.22,0.502-0.496,0.504l-3.575,0.031c-1.381,0.043-3.317,1.204-3.317,2.289v40.98c0,1.107,1.938,2.271,3.331,2.32
		l3.562,0.03c0.276,0.002,0.498,0.228,0.496,0.504C505.468,248.329,505.244,248.55,504.97,248.55z"/>
</g>
<g>
	<path style="fill:#E4E4E3;" d="M504.97,476.651c-0.001,0-0.003,0-0.004,0l-3.575-0.031c-1.742-0.054-4.31-1.459-4.31-3.289v-41.01
		c0-1.819,2.565-3.227,4.296-3.289l3.589-0.031c0.001,0,0.003,0,0.004,0c0.274,0,0.498,0.221,0.5,0.496
		c0.002,0.276-0.22,0.502-0.496,0.504l-3.575,0.031c-1.379,0.049-3.317,1.212-3.317,2.289v40.979c0,1.115,1.937,2.277,3.329,2.32
		l3.563,0.03c0.276,0.002,0.498,0.228,0.496,0.504C505.468,476.43,505.244,476.651,504.97,476.651z"/>
</g>
<g>
	<path style="fill:#E4E4E3;" d="M647.13,237.17c-11.495,0-20.848-9.349-20.848-20.839c0-11.5,9.353-20.855,20.848-20.855
		c11.499,0,20.854,9.355,20.854,20.855C667.984,227.822,658.629,237.17,647.13,237.17z M647.13,196.476
		c-10.944,0-19.848,8.907-19.848,19.855c0,10.939,8.903,19.839,19.848,19.839c10.948,0,19.854-8.9,19.854-19.839
		C666.984,205.383,658.078,196.476,647.13,196.476z"/>
</g>
<g>
	<path style="fill:#E4E4E3;" d="M602.968,195.244c-11.499,0-20.854-9.352-20.854-20.847s9.354-20.847,20.854-20.847
		c11.495,0,20.848,9.352,20.848,20.847S614.463,195.244,602.968,195.244z M602.968,154.55c-10.947,0-19.854,8.903-19.854,19.847
		c0,10.944,8.906,19.847,19.854,19.847c10.944,0,19.848-8.903,19.848-19.847C622.815,163.453,613.912,154.55,602.968,154.55z"/>
</g>
<g>
	<path style="fill:#E4E4E3;" d="M602.968,279.106c-11.499,0-20.854-9.353-20.854-20.848c0-11.499,9.354-20.854,20.854-20.854
		c11.495,0,20.848,9.355,20.848,20.854C623.815,269.753,614.463,279.106,602.968,279.106z M602.968,238.403
		c-10.947,0-19.854,8.906-19.854,19.854c0,10.944,8.906,19.848,19.854,19.848c10.944,0,19.848-8.904,19.848-19.848
		C622.815,247.31,613.912,238.403,602.968,238.403z"/>
</g>
<g>
	<path style="fill:#E4E4E3;" d="M558.8,237.17c-11.495,0-20.848-9.349-20.848-20.839c0-11.5,9.353-20.855,20.848-20.855
		s20.847,9.355,20.847,20.855C579.646,227.822,570.295,237.17,558.8,237.17z M558.8,196.476c-10.944,0-19.848,8.907-19.848,19.855
		c0,10.939,8.903,19.839,19.848,19.839c10.943,0,19.847-8.9,19.847-19.839C578.646,205.383,569.743,196.476,558.8,196.476z"/>
</g>
<g>
	<path style="fill:#E4E4E3;" d="M572.213,495.812c-9.528,0-17.279-7.749-17.279-17.272s7.751-17.272,17.279-17.272
		c9.52,0,17.265,7.749,17.265,17.272S581.732,495.812,572.213,495.812z M572.213,462.267c-8.977,0-16.279,7.3-16.279,16.272
		s7.303,16.272,16.279,16.272c8.969,0,16.265-7.3,16.265-16.272S581.182,462.267,572.213,462.267z"/>
</g>
<g>
	<path style="fill:#E4E4E3;" d="M572.213,501.398c-12.612,0-22.873-10.254-22.873-22.858c0-12.607,10.261-22.865,22.873-22.865
		c12.604,0,22.858,10.257,22.858,22.865C595.071,491.143,584.817,501.398,572.213,501.398z M572.213,456.674
		c-12.061,0-21.873,9.809-21.873,21.865c0,12.053,9.812,21.858,21.873,21.858c12.053,0,21.858-9.806,21.858-21.858
		C594.071,466.483,584.266,456.674,572.213,456.674z"/>
</g>
<g>
	<path style="fill:#E4E4E3;" d="M602.968,416.819c-24.197,0-43.883-19.689-43.883-43.891s19.686-43.891,43.883-43.891
		c24.202,0,43.892,19.689,43.892,43.891S627.17,416.819,602.968,416.819z M602.968,330.038c-23.646,0-42.883,19.241-42.883,42.891
		s19.237,42.891,42.883,42.891c23.65,0,42.892-19.241,42.892-42.891S626.618,330.038,602.968,330.038z"/>
</g>
<g>
	<path style="fill:#E4E4E3;" d="M601.867,342.659c0-0.755-0.008-1.502-0.008-2.257l0.008-7.019c0-0.747,0.562-0.671,1.109-0.671
		c0.555,0,1.125-0.084,1.125,0.671l0.008,7.019c0,0.755,0,1.502-0.008,2.257"/>
	<path style="fill:#E4E4E3;" d="M604.602,342.664l-1-0.011c0.008-0.753,0.008-1.499,0.008-2.252l-0.008-7.019
		c0-0.118-0.021-0.157-0.021-0.157c-0.049-0.021-0.297-0.016-0.444-0.016l-0.16,0.001l-0.146-0.001
		c-0.144-0.003-0.381-0.005-0.452,0.029c0.003,0.005-0.011,0.048-0.011,0.142l-0.008,7.02l0.008,2.257h-1l-0.008-2.257l0.008-7.02
		c0-0.365,0.104-0.653,0.31-0.856c0.329-0.324,0.799-0.32,1.165-0.314l0.135,0.001l0.146-0.001c0.379-0.003,0.839-0.012,1.169,0.313
		c0.206,0.204,0.311,0.492,0.311,0.859l0.008,7.019C604.609,341.159,604.609,341.907,604.602,342.664z"/>
</g>
<g>
	<path style="fill:#E4E4E3;" d="M572.714,374.062c-0.763,0-1.518,0-2.273,0h-7.011c-0.755,0-0.678-0.562-0.678-1.11
		c0-0.555-0.085-1.124,0.678-1.124l7.011-0.008c0.755,0.008,1.51,0.008,2.265,0.008"/>
	<path style="fill:#E4E4E3;" d="M572.714,374.562h-9.284c-0.369,0-0.659-0.105-0.864-0.312c-0.324-0.329-0.319-0.792-0.314-1.164
		l0.001-0.134l-0.001-0.146c-0.006-0.373-0.012-0.837,0.312-1.166c0.204-0.208,0.496-0.312,0.866-0.312l7.011-0.008
		c0.76,0.008,1.513,0.008,2.266,0.008v1c-0.757,0-1.514,0-2.271-0.008l-7.005,0.008c-0.124,0-0.164,0.021-0.164,0.022
		c-0.021,0.048-0.019,0.295-0.017,0.442l0.002,0.16l-0.001,0.146c-0.002,0.144-0.005,0.382,0.03,0.452
		c-0.002-0.001,0.049,0.012,0.148,0.012h9.284V374.562z"/>
</g>
<g>
	<path style="fill:#E4E4E3;" d="M604.109,403.207c0,0.763,0,1.518,0,2.281v7.01c-0.008,0.748-0.57,0.671-1.109,0.671
		c-0.555,0.008-1.125,0.092-1.125-0.671l-0.016-7.01c0.008-0.763,0.008-1.518,0.008-2.281"/>
	<path style="fill:#E4E4E3;" d="M602.666,413.675c-0.332,0-0.7-0.039-0.975-0.307c-0.21-0.205-0.316-0.497-0.316-0.87l-0.016-7.01
		c0.008-0.767,0.008-1.521,0.008-2.282h1c0,0.765,0,1.521-0.008,2.286l0.016,7.005c0,0.124,0.021,0.164,0.021,0.164
		c0.05,0.021,0.301,0.014,0.451,0.011l0.146-0.003l0.152,0.001c0.142,0.002,0.382,0.004,0.45-0.03
		c-0.003-0.004,0.013-0.047,0.014-0.146v-9.286h1v9.292c-0.004,0.37-0.11,0.657-0.317,0.859c-0.33,0.322-0.791,0.312-1.159,0.312
		L603,413.669l-0.127,0.003C602.807,413.673,602.737,413.675,602.666,413.675z"/>
</g>
<g>
	<path style="fill:#E4E4E3;" d="M633.262,371.827c0.755,0,1.51,0,2.265-0.008l7.011,0.008c0.755,0,0.678,0.562,0.678,1.109
		c0,0.555,0.084,1.125-0.678,1.125l-7.011,0.007c-0.755-0.007-1.51-0.007-2.273-0.007"/>
	<path style="fill:#E4E4E3;" d="M635.528,374.569c-0.759-0.007-1.514-0.007-2.274-0.007v-1c0.765,0,1.521,0,2.278,0.007l7.005-0.007
		c0.123,0,0.163-0.021,0.163-0.022c0.022-0.048,0.02-0.297,0.017-0.445l-0.001-0.158l0.001-0.146
		c0.002-0.144,0.005-0.381-0.029-0.451c-0.014-0.003-0.051-0.012-0.149-0.012l-7.012-0.008c-0.75,0.008-1.508,0.008-2.265,0.008v-1
		c0.002,0,0.004,0,0.006,0c0.751,0,1.503,0,2.254-0.008l7.018,0.008c0.368,0,0.659,0.105,0.863,0.312
		c0.324,0.329,0.319,0.792,0.314,1.163l-0.001,0.134l0.001,0.145c0.006,0.374,0.012,0.838-0.313,1.168
		c-0.204,0.208-0.495,0.312-0.865,0.312L635.528,374.569z"/>
</g>
<g>
	<path style="fill:#E4E4E3;" d="M602.984,403.629c-16.929,0-30.701-13.769-30.701-30.693s13.772-30.693,30.701-30.693
		c16.924,0,30.692,13.769,30.692,30.693S619.908,403.629,602.984,403.629z M602.984,343.243c-16.377,0-29.701,13.32-29.701,29.693
		c0,16.373,13.324,29.693,29.701,29.693c16.372,0,29.692-13.32,29.692-29.693C632.677,356.564,619.356,343.243,602.984,343.243z"/>
</g>
<g>
	<path style="fill:#E4E4E3;" d="M549.963,144.934h-6.371c-1.073,0-1.617-0.542-1.617-1.609v-8.229c0-0.336-0.277-0.609-0.617-0.609
		h-8.221c-1.058,0-1.617-0.562-1.617-1.625v-6.379c0-1.053,0.56-1.609,1.617-1.609h8.221c0.34,0,0.617-0.28,0.617-0.625v-8.213
		c0-1.063,0.56-1.625,1.617-1.625h6.371c1.063,0,1.625,0.562,1.625,1.625v8.213c0,0.345,0.277,0.625,0.617,0.625h8.221
		c1.068,0,1.609,0.542,1.609,1.609v6.379c0,1.063-0.557,1.625-1.609,1.625h-8.221c-0.34,0-0.617,0.273-0.617,0.609v8.229
		C551.588,144.393,551.041,144.934,549.963,144.934z M533.137,125.874c-0.514,0-0.617,0.103-0.617,0.609v6.379
		c0,0.514,0.109,0.625,0.617,0.625h8.221c0.892,0,1.617,0.722,1.617,1.609v8.229c0,0.512,0.098,0.609,0.617,0.609h6.371
		c0.52,0,0.625-0.103,0.625-0.609v-8.229c0-0.887,0.726-1.609,1.617-1.609h8.221c0.501,0,0.609-0.111,0.609-0.625v-6.379
		c0-0.506-0.103-0.609-0.609-0.609h-8.221c-0.892,0-1.617-0.729-1.617-1.625v-8.213c0-0.514-0.111-0.625-0.625-0.625h-6.371
		c-0.508,0-0.617,0.111-0.617,0.625v8.213c0,0.896-0.726,1.625-1.617,1.625H533.137z"/>
</g>
<g>
	<path style="fill:#E4E4E3;" d="M199.547,591.311c-0.932,0-2.121-0.009-3.544-0.028l-0.175-0.002
		c-1.001-0.06-1.57-0.469-1.934-1.368l-1.982-4.509c-0.028-0.063-0.042-0.132-0.042-0.201l-0.028-18.357
		c-0.041-0.137-0.037-0.165-0.551-0.149h-6.07c-0.276,0-0.5-0.224-0.5-0.5s0.224-0.5,0.5-0.5h6.032c0.566,0.016,1.327,0,1.571,0.98
		l0.043,0.397l0.002,18.023l1.946,4.427c0.225,0.556,0.458,0.723,1.044,0.758l0.158,0.001c3.658,0.05,5.027,0.026,5.532-0.001
		c0.999-0.054,1.561-0.51,2.005-1.628c0.119-0.29,0.173-0.559,0.173-0.848v-87.174c-0.008-3.193-0.616-6.037-1.914-8.949
		c-0.522-1.165-1.524-2.082-2.494-2.968c-1.405-1.285-2.858-2.614-2.858-4.708v-44.723c0-2.095,1.453-3.424,2.858-4.709
		c0.969-0.887,1.972-1.804,2.494-2.969c1.298-2.904,1.906-5.746,1.914-8.942v-150.14c-0.008-3.195-0.616-6.037-1.914-8.941
		c-0.522-1.165-1.524-2.082-2.494-2.969c-1.405-1.285-2.858-2.614-2.858-4.709v-44.731c0-2.096,1.455-3.425,2.861-4.71
		c0.968-0.885,1.969-1.8,2.491-2.96c1.297-2.911,1.905-5.754,1.914-8.949v-78.097c-0.007-1.24-0.958-2.244-2.164-2.313
		l-16.343,0.001c-0.276,0-0.5-0.224-0.5-0.5s0.224-0.5,0.5-0.5h16.356c1.776,0.1,3.141,1.54,3.151,3.278v78.133
		c-0.008,3.339-0.645,6.312-2.001,9.356c-0.606,1.351-1.686,2.336-2.729,3.29c-1.36,1.243-2.536,2.317-2.536,3.972v44.731
		c0,1.654,1.174,2.728,2.533,3.971c1.044,0.956,2.125,1.944,2.731,3.298c1.357,3.037,1.993,6.008,2.001,9.348v150.143
		c-0.008,3.342-0.645,6.312-2.001,9.349c-0.607,1.354-1.687,2.343-2.731,3.298c-1.359,1.243-2.533,2.317-2.533,3.971v44.723
		c0,1.654,1.174,2.728,2.533,3.971c1.045,0.956,2.125,1.944,2.731,3.298c1.357,3.045,1.993,6.018,2.001,9.355v87.176
		c0,0.418-0.081,0.817-0.246,1.222c-0.589,1.481-1.478,2.177-2.878,2.252C201.221,591.301,200.526,591.311,199.547,591.311z"/>
</g>
<g>
	<path style="fill:#E4E4E3;" d="M197.115,257.367c-0.274,0-0.498-0.221-0.5-0.496c-0.002-0.276,0.22-0.502,0.496-0.504l3.574-0.031
		c1.38-0.049,3.318-1.212,3.318-2.289v-41.011c0-1.084-1.937-2.246-3.33-2.289l-3.563-0.031c-0.276-0.002-0.498-0.228-0.496-0.504
		c0.003-0.275,0.247-0.485,0.504-0.496l3.574,0.031c1.742,0.054,4.31,1.458,4.31,3.289v40.98c0,1.849-2.566,3.257-4.296,3.319
		l-3.588,0.031C197.118,257.367,197.117,257.367,197.115,257.367z"/>
</g>
<g>
	<path style="fill:#E4E4E3;" d="M197.115,485.469c-0.274,0-0.498-0.221-0.5-0.496c-0.002-0.276,0.22-0.502,0.496-0.504l3.574-0.031
		c1.381-0.043,3.318-1.204,3.318-2.289v-41.011c0-1.076-1.938-2.239-3.332-2.289l-3.561-0.03c-0.276-0.002-0.498-0.228-0.496-0.504
		c0.002-0.274,0.226-0.496,0.5-0.496c0.001,0,0.003,0,0.004,0l3.574,0.031c1.744,0.062,4.31,1.47,4.31,3.289v40.98
		c0,1.861-2.567,3.266-4.298,3.319l-3.585,0.031C197.118,485.469,197.117,485.469,197.115,485.469z"/>
</g>
<g>
	<path style="fill:#E4E4E3;" d="M39.289,161.876c-0.109,0-0.22-0.036-0.312-0.11l-5.304-4.248c-0.216-0.172-0.25-0.487-0.078-0.703
		c0.172-0.215,0.487-0.251,0.703-0.078l5.304,4.248c0.216,0.172,0.25,0.487,0.078,0.703
		C39.581,161.812,39.436,161.876,39.289,161.876z"/>
</g>
<g>
	<path style="fill:#E4E4E3;" d="M146.34,126.783c-0.276,0-0.5-0.224-0.5-0.5v-12.384c0-0.276,0.224-0.5,0.5-0.5s0.5,0.224,0.5,0.5
		v12.384C146.84,126.559,146.616,126.783,146.34,126.783z"/>
</g>
<g>
	<path style="fill:#E4E4E3;" d="M163.416,163.722c-7.131,0-12.933-5.801-12.933-12.931c0-7.132,5.802-12.935,12.933-12.935
		s12.933,5.803,12.933,12.935C176.348,157.921,170.546,163.722,163.416,163.722z M163.416,138.857
		c-6.58,0-11.933,5.354-11.933,11.935c0,6.579,5.353,11.931,11.933,11.931s11.933-5.352,11.933-11.931
		C175.348,144.211,169.995,138.857,163.416,138.857z"/>
</g>
<g>
	<path style="fill:#E4E4E3;" d="M182.424,647.137h-64.517C52.893,647.137,0,594.244,0,529.231V200.603
		c0-12.2,1.781-23.786,5.446-35.421l0.207-0.511c0.383-1.042,1.008-2.523,1.612-3.956l0.587-1.397
		c17.18-45.822,61.411-76.621,110.055-76.621h61.73c3.354,0.004,6.083,2.736,6.083,6.089v555.054
		C185.72,645.658,184.241,647.137,182.424,647.137z M117.907,83.697c-48.229,0-92.083,30.538-109.125,75.988l-0.596,1.418
		c-0.6,1.422-1.22,2.893-1.601,3.929l-0.199,0.488C2.766,177.019,1,188.507,1,200.603v328.627
		c0,64.462,52.444,116.906,116.907,116.906h64.517c1.266,0,2.296-1.03,2.296-2.296V88.787c0-2.803-2.28-5.086-5.083-5.089
		l-0.008-0.5v0.5H117.907z"/>
</g>
<g>
	<path style="fill:#E4E4E3;" d="M85.047,199.875c-18.088,0-35.5-6.507-46.917-14.681c-0.225-0.161-0.276-0.473-0.116-0.698
		c0.161-0.224,0.474-0.276,0.698-0.116c15.25,10.917,41.333,18.827,65.228,11.888c26.656-7.742,36.264-23.598,41.657-36.546
		c0.107-0.255,0.4-0.375,0.654-0.269c0.255,0.106,0.375,0.399,0.269,0.654c-10.429,25.042-28.084,32.993-42.3,37.122
		C97.902,199.064,91.431,199.875,85.047,199.875z"/>
</g>
<g>
	<path style="fill:#E4E4E3;" d="M25.934,148.845c-0.251,0-0.467-0.188-0.496-0.443c-0.031-0.274,0.166-0.522,0.44-0.553
		c1.465-0.167,2.821-0.736,4.03-1.692c3.309-2.618,6.067-4.912,8.987-7.34c1.834-1.526,3.709-3.084,5.781-4.774
		c4.551-3.71,9.924-7.625,17.36-13.042c10.659-7.767,22.04-11.779,34.791-12.265c5.624-0.216,11.356,0.16,16.899,0.521
		c8.604,0.562,16.731,1.092,23.237-0.651c3.814-1.022,5.292-5.046,6.597-8.597c0.157-0.427,0.31-0.843,0.462-1.241
		c0.099-0.257,0.388-0.386,0.646-0.288s0.387,0.388,0.288,0.646c-0.151,0.394-0.302,0.805-0.458,1.228
		c-1.319,3.591-2.962,8.061-7.277,9.218c-6.665,1.788-14.872,1.251-23.561,0.684c-5.519-0.36-11.225-0.734-16.796-0.521
		c-12.546,0.478-23.746,4.428-34.24,12.074c-7.423,5.409-12.787,9.316-17.317,13.009c-2.07,1.687-3.941,3.244-5.774,4.768
		c-2.924,2.432-5.687,4.729-9.006,7.355c-1.357,1.074-2.883,1.714-4.537,1.901C25.971,148.844,25.952,148.845,25.934,148.845z"/>
</g>
<g>
	<path style="fill:#E4E4E3;" d="M10.034,155.71c0,0-0.001,0-0.002,0l-3.955-0.016c-1.729,0-2.636-0.83-3.091-1.525
		c-0.716-1.096-0.818-2.699-0.254-3.989c1.189-2.724,2.459-5.364,3.883-8.069c1.2-2.233,2.496-4.486,3.854-6.7
		c22.567-37.205,62.023-59.806,105.544-60.456l33.211-0.069c3.004,0,5.496,2.435,5.556,5.428l0.046,2.844
		c0.004,0.276-0.216,0.504-0.492,0.508c-0.003,0-0.006,0-0.008,0c-0.272,0-0.496-0.219-0.5-0.492l-0.046-2.842
		c-0.049-2.451-2.092-4.447-4.555-4.447l-33.204,0.069C72.853,76.598,33.711,99.02,11.323,135.93c-1.35,2.2-2.636,4.437-3.825,6.649
		c-1.41,2.68-2.669,5.297-3.85,8c-0.428,0.979-0.356,2.229,0.175,3.042c0.466,0.712,1.225,1.073,2.256,1.073l3.957,0.016
		c0.276,0.001,0.499,0.226,0.498,0.502C10.533,155.487,10.31,155.71,10.034,155.71z"/>
</g>
<g>
	<path style="fill:#E4E4E3;" d="M28.814,159.749c-0.115,0-0.23-0.003-0.343-0.011c-0.528-0.03-1.054-0.079-1.581-0.146
		c-1.21-0.137-2.273-0.424-3.244-0.877l-0.364-0.166c-0.958-0.428-1.862-0.833-2.465-2.312c0,0-0.93-2.266-1.227-3.027
		c-0.56-1.435-0.801-2.81-0.717-4.088c0.041-0.621,0.162-1.22,0.359-1.78c0.097-0.278,0.213-0.55,0.344-0.813
		c0.158-0.316,0.336-0.627,0.514-0.93c0.02-0.034,0.043-0.065,0.069-0.092c21.316-34.691,59.623-56.225,100.082-56.225
		c0.143-0.003,15.434-0.335,22.005,0l0,0c0.924,0.047,2.517,0.677,3.69,1.197c0.686,0.304,1.211,0.84,1.636,1.326
		c0.219,0.251,0.422,0.521,0.621,0.826c0.221,0.334,0.474,0.729,0.673,1.146c0.052,0.114,1.182,2.607,1.465,3.52
		c0.282,0.909,0.219,1.56,0.152,2.248l-0.114,1.136c-0.211,1.776-0.549,3.655-1.065,5.92c-0.248,1.083-0.456,1.911-0.676,2.684
		c-0.11,0.388-0.228,0.776-0.351,1.164c-0.116,0.363-0.238,0.724-0.37,1.083l-0.249,0.654c-0.447,1.197-1.014,2.288-1.781,3.431
		c-0.647,0.963-2.554,2.684-2.853,2.877c-2.312,1.493-4.672,2.122-7.504,2.607c-4.772,0.805-9.596,0.82-14.261,0.833l-1.976,0.008
		c-2.088,0.012-4.175-0.002-6.262-0.018c-4.349-0.032-8.846-0.064-13.266,0.173c-1.243,0.067-2.455,0.163-3.602,0.286
		c-1.141,0.124-2.287,0.272-3.419,0.444c-13.18,1.983-24.593,6.72-35.918,14.906c-1.305,0.941-2.643,1.96-3.978,3.03
		c-1.394,1.116-2.808,2.305-4.204,3.533c-1.262,1.112-2.534,2.278-3.887,3.563c-1.06,1.008-2.107,2.028-3.154,3.048
		c-0.728,0.709-1.456,1.418-2.188,2.124c-0.459,0.442-0.919,0.881-1.383,1.316c-1.2,1.119-2.206,1.991-3.166,2.744
		c-0.834,0.651-1.955,1.47-3.232,2.022C30.65,159.537,29.706,159.749,28.814,159.749z M20.756,146.444
		c-0.099,0.174-0.196,0.352-0.285,0.53c-0.112,0.226-0.212,0.459-0.296,0.699c-0.168,0.476-0.27,0.985-0.305,1.515
		c-0.074,1.131,0.145,2.362,0.651,3.659c0.295,0.757,1.22,3.011,1.22,3.012c0.452,1.108,1.047,1.375,1.948,1.778l0.379,0.172
		c0.883,0.412,1.817,0.663,2.94,0.791c0.51,0.064,1.014,0.112,1.521,0.141c0.835,0.052,1.743-0.13,2.699-0.542
		c1.173-0.507,2.226-1.277,3.013-1.892c0.936-0.734,1.921-1.588,3.098-2.687c0.46-0.432,0.917-0.867,1.373-1.307
		c0.73-0.703,1.457-1.411,2.184-2.119c1.05-1.023,2.1-2.046,3.164-3.057c1.362-1.294,2.643-2.468,3.915-3.589
		c1.408-1.239,2.834-2.438,4.239-3.563c1.348-1.08,2.7-2.11,4.018-3.061c11.459-8.283,23.011-13.076,36.354-15.084
		c1.146-0.174,2.306-0.324,3.448-0.447c1.179-0.127,2.409-0.225,3.669-0.293c4.45-0.239,8.963-0.207,13.327-0.174
		c2.083,0.016,4.165,0.031,6.249,0.018l1.979-0.008c4.624-0.014,9.406-0.028,14.096-0.819c2.71-0.464,4.96-1.06,7.129-2.461
		c0.219-0.149,2.003-1.759,2.565-2.594c0.722-1.076,1.255-2.102,1.675-3.227l0.248-0.651c0.125-0.34,0.242-0.688,0.354-1.038
		c0.12-0.376,0.234-0.754,0.341-1.133c0.215-0.756,0.419-1.568,0.663-2.632c0.507-2.23,0.84-4.076,1.046-5.809l0.113-1.122
		c0.062-0.636,0.11-1.139-0.112-1.855c-0.265-0.853-1.405-3.369-1.417-3.395c-0.168-0.352-0.39-0.697-0.602-1.02
		c-0.165-0.251-0.342-0.492-0.539-0.717c-0.352-0.402-0.78-0.844-1.288-1.069c-1.527-0.676-2.743-1.082-3.336-1.112l0,0
		c-6.535-0.333-21.791-0.003-21.943,0c-40.272,0-78.383,21.506-99.472,56.126C20.772,146.421,20.764,146.433,20.756,146.444z
		 M20.816,156.238h0.01H20.816z"/>
</g>
<g>
	<path style="fill:#E4E4E3;" d="M21.955,164.878c-2.531,0-6.289-0.123-9.922-0.243c-1.876-0.062-3.721-0.122-5.345-0.164
		c-0.276-0.007-0.494-0.237-0.487-0.513c0.007-0.276,0.204-0.476,0.513-0.487c1.627,0.042,3.474,0.103,5.353,0.165
		c3.625,0.119,7.375,0.242,9.881,0.242c3.241-0.058,6.418-0.156,9.571-0.722c3.56-0.667,6.867-1.775,10.107-3.386l3.856-1.995
		c4.127-2.212,8.11-4.814,11.961-7.329c1.995-1.303,4.058-2.651,6.121-3.931c6.948-4.359,14.099-7.761,21.859-10.399
		c8.95-3.022,17.013-4.429,25.377-4.429l19.315,0.042c0.023,0,0.047,0,0.069,0c7.186,0,12.2-2.088,17.295-7.199l0.928-0.973
		c2.611-2.611,5.42-11.015,5.42-20.055V83.166c0-0.276,0.224-0.5,0.5-0.5s0.5,0.224,0.5,0.5v20.335
		c0,8.298-2.559,17.608-5.705,20.753l-0.923,0.967c-5.246,5.262-10.635,7.506-18.018,7.506c-0.023,0-0.045,0-0.068,0l-19.313-0.042
		c-8.252,0-16.214,1.391-25.056,4.376c-7.686,2.612-14.768,5.982-21.651,10.3c-2.055,1.276-4.113,2.62-6.103,3.92
		c-3.869,2.527-7.87,5.141-12.042,7.377l-3.87,2.002c-3.331,1.656-6.724,2.792-10.379,3.478
		C28.468,164.718,25.247,164.819,21.955,164.878z"/>
</g>
<g>
	<path style="fill:#E4E4E3;" d="M371.562,580.349h-38.745c-1.465,0-2.178-0.713-2.178-2.18v-80.926c0-1.464,0.712-2.176,2.178-2.176
		h38.745c1.464,0,2.175,0.712,2.175,2.176v80.926C373.737,579.636,373.025,580.349,371.562,580.349z M332.816,496.067
		c-0.914,0-1.178,0.264-1.178,1.176v80.926c0,0.915,0.264,1.18,1.178,1.18h38.745c0.912,0,1.175-0.265,1.175-1.18v-80.926
		c0-0.912-0.264-1.176-1.175-1.176H332.816z"/>
</g>
<g>
	<path style="fill:#E4E4E3;" d="M371.588,641.605h-24.824c-3.938,0-7.649-0.635-11.345-1.939c-0.034-0.013-0.066-0.027-0.096-0.046
		c-13.524-4.832-22.604-17.71-22.604-32.074V111.226c0-14.401,9.122-27.307,22.699-32.113c3.699-1.306,7.41-1.94,11.346-1.94h24.824
		c11.066,0,20.068,9.003,20.068,20.069v524.293C391.656,632.602,382.654,641.605,371.588,641.605z M335.862,638.761
		c3.551,1.24,7.118,1.844,10.902,1.844h24.824c10.514,0,19.068-8.555,19.068-19.069V97.242c0-10.515-8.554-19.069-19.068-19.069
		h-24.824c-3.82,0-7.423,0.616-11.012,1.883c-13.178,4.666-22.033,17.192-22.033,31.17v496.319c0,13.95,8.824,26.456,21.963,31.141
		c0.033,0.007,0.065,0.017,0.097,0.03C335.809,638.729,335.837,638.743,335.862,638.761z"/>
</g>
<g>
	<path style="fill:#E4E4E3;" d="M313.213,202.366c-0.274,0-0.497-0.221-0.5-0.495c-0.026-2.569-0.164-4.829-0.421-6.909
		c-0.27-2.207-0.65-4.198-1.165-6.086c-1.021-3.82-2.728-7.77-5.071-11.742c-1.948-3.308-4.354-6.673-7.575-10.592
		c-2.895-3.513-6.013-6.931-9.029-10.237c-1.821-1.997-3.705-4.062-5.522-6.128c-1.411-1.619-2.907-3.36-4.302-5.138
		c-1.245-1.582-2.448-3.252-3.576-4.964c-1.094-1.671-1.995-3.209-2.755-4.701c-0.333-0.659-0.658-1.331-0.969-2.01
		c-0.011-0.018-0.021-0.036-0.029-0.056c-0.198-0.445-0.348-0.842-0.447-1.179c-0.165-0.557-0.349-1.298-0.312-2.083
		c0.036-0.671,0.218-1.314,0.526-1.862c0.34-0.589,0.812-1.073,1.367-1.402c0.279-0.174,0.583-0.314,0.894-0.41
		c0.372-0.117,0.706-0.183,1.016-0.198c0.281-0.016,1.119-0.016,1.119-0.016c2.859,0,5.719,0.016,8.571,0.039
		c0.466,0,1.089-0.023,1.454-0.038c1.554-0.078,3.152-0.318,4.882-0.734c1.696-0.402,3.366-0.938,4.964-1.594
		c1.543-0.636,2.833-1.308,3.94-2.056c0.541-0.355,1.067-0.754,1.57-1.189c0.463-0.393,0.919-0.839,1.398-1.367
		c0.017-0.018,0.034-0.035,0.052-0.05c0.894-0.986,1.681-2.131,2.34-3.403c0.326-0.626,0.621-1.291,0.899-2.034
		c0.137-0.356,0.257-0.709,0.37-1.062c0.129-0.409,0.25-0.82,0.365-1.23c0.005-0.02,0.012-0.039,0.02-0.057
		c0.226-0.826,0.524-1.71,0.914-2.703c0.412-1.025,0.884-2.098,1.446-3.284c1.092-2.288,2.382-4.609,3.835-6.902
		c1.356-2.152,2.822-4.206,4.356-6.103c0.729-0.904,1.511-1.813,2.323-2.703c0.797-0.879,1.647-1.699,2.381-2.398
		c0.199-0.19,0.516-0.184,0.707,0.017c0.19,0.2,0.183,0.516-0.017,0.707c-0.721,0.688-1.556,1.492-2.332,2.347
		c-0.799,0.876-1.567,1.77-2.285,2.659c-1.51,1.867-2.953,3.889-4.289,6.009c-1.433,2.26-2.703,4.546-3.777,6.797
		c-0.553,1.166-1.017,2.221-1.42,3.223c-0.381,0.972-0.673,1.837-0.89,2.64c-0.01,0.039-0.025,0.075-0.044,0.11
		c-0.083,0.33-0.207,0.751-0.339,1.173c-0.119,0.373-0.246,0.744-0.388,1.115c-0.292,0.779-0.603,1.48-0.947,2.141
		c-0.709,1.369-1.562,2.603-2.533,3.665c-0.016,0.017-0.033,0.033-0.051,0.048c-0.492,0.539-0.965,0.999-1.443,1.405
		c-0.533,0.46-1.095,0.886-1.667,1.262c-1.159,0.782-2.507,1.486-4.114,2.148c-1.647,0.676-3.367,1.229-5.113,1.642
		c-1.789,0.43-3.447,0.679-5.068,0.76c-0.379,0.016-1.02,0.039-1.504,0.039c-2.853-0.023-5.71-0.039-8.567-0.039
		c0.005,0.007-0.795,0-1.066,0.015c-0.228,0.012-0.479,0.062-0.772,0.155c-0.231,0.071-0.456,0.175-0.671,0.309
		c-0.418,0.248-0.767,0.606-1.019,1.043c-0.231,0.41-0.369,0.901-0.396,1.417c-0.023,0.493,0.061,1.034,0.272,1.751
		c0.083,0.282,0.209,0.618,0.376,1c0.008,0.014,0.016,0.029,0.023,0.044c0.313,0.687,0.642,1.367,0.978,2.031
		c0.743,1.458,1.626,2.965,2.699,4.605c1.112,1.687,2.298,3.334,3.526,4.896c1.381,1.76,2.867,3.49,4.268,5.097
		c1.81,2.058,3.69,4.12,5.508,6.113c3.024,3.315,6.151,6.743,9.062,10.276c3.254,3.96,5.689,7.366,7.664,10.719
		c2.39,4.05,4.131,8.084,5.175,11.989c0.527,1.933,0.917,3.97,1.192,6.225c0.262,2.117,0.402,4.413,0.429,7.02
		c0.003,0.276-0.219,0.502-0.495,0.505C313.216,202.366,313.214,202.366,313.213,202.366z"/>
</g>
<g>
	<path style="fill:#E4E4E3;" d="M273.078,116.439c-0.221,0-0.426-0.002-0.577-0.007c-0.276-0.01-0.492-0.241-0.482-0.517
		c0.009-0.276,0.255-0.508,0.517-0.482c0.301,0.009,0.822,0.006,1.253,0.002l0.494-0.003c0.482,0,0.95-0.007,1.424-0.015
		c3.2-0.045,6.427-0.323,9.591-0.826c4.78-0.788,9.659-2.126,15.354-4.213c1.72-0.627,3.562-1.343,5.63-2.189
		c0.922-0.376,1.843-0.76,2.75-1.152c0.253-0.11,0.547,0.007,0.657,0.261c0.109,0.253-0.007,0.548-0.261,0.657
		c-0.913,0.395-1.839,0.78-2.768,1.16c-2.081,0.851-3.934,1.572-5.666,2.203c-5.754,2.108-10.691,3.462-15.537,4.261
		c-3.214,0.51-6.488,0.792-9.735,0.839c-0.479,0.008-0.952,0.015-1.425,0.015l-0.5,0.003
		C273.567,116.437,273.313,116.439,273.078,116.439z"/>
</g>
<g>
	<path style="fill:#E4E4E3;" d="M277.233,127.157c-0.161,0-0.319-0.078-0.416-0.222c-3.204-4.775-4.761-8.168-4.761-10.371
		c-0.055-0.827-0.119-1.686-0.183-2.544c-0.12-1.612-0.244-3.28-0.31-4.924c-0.016-0.422-0.016-1.264-0.016-1.684
		c0.025-1.173,0.218-2.292,0.574-3.336c0.342-1.017,0.863-1.943,1.548-2.75c0.648-0.778,1.402-1.385,2.239-1.803
		c0.417-0.205,0.856-0.372,1.307-0.497c0.532-0.155,1.062-0.255,1.644-0.358c0.027-0.01,0.056-0.018,0.086-0.023
		c5.739-0.981,11.64-2.427,18.04-4.422c2.742-0.85,5.654-1.817,9.167-3.045c3.101-1.091,6.191-2.213,9.282-3.336
		c2.014-0.731,4.028-1.463,6.045-2.187c1.673-0.602,3.346-1.194,5.027-1.781c0.262-0.091,0.546,0.046,0.637,0.307
		c0.091,0.261-0.047,0.546-0.307,0.637c-1.678,0.586-3.349,1.178-5.02,1.778c-2.017,0.723-4.029,1.454-6.042,2.185
		c-3.094,1.124-6.188,2.248-9.292,3.34c-3.525,1.232-6.449,2.203-9.201,3.057c-6.411,1.999-12.328,3.451-18.085,4.438
		c-0.026,0.009-0.053,0.017-0.082,0.022c-0.606,0.106-1.111,0.2-1.626,0.35c-0.396,0.11-0.777,0.255-1.137,0.431
		c-0.709,0.354-1.355,0.876-1.917,1.55c-0.597,0.704-1.068,1.542-1.367,2.429c-0.323,0.948-0.498,1.965-0.521,3.025
		c0,0.401,0,1.224,0.015,1.635c0.065,1.625,0.189,3.284,0.308,4.888c0.064,0.862,0.128,1.724,0.185,2.586
		c0.001,2.003,1.546,5.305,4.592,9.847c0.154,0.229,0.093,0.54-0.137,0.693C277.426,127.129,277.329,127.157,277.233,127.157z"/>
</g>
<g>
	<path style="fill:#E4E4E3;" d="M403.669,366.275c-0.268,0-0.489-0.211-0.5-0.48c-0.011-0.276,0.204-0.508,0.48-0.519
		c2.662-0.105,4.813-2.275,4.896-4.94c0.009-0.275,0.239-0.482,0.516-0.484c0.276,0.009,0.493,0.24,0.484,0.516
		c-0.1,3.187-2.673,5.782-5.857,5.908C403.682,366.275,403.675,366.275,403.669,366.275z"/>
</g>
<g>
	<path style="fill:#E4E4E3;" d="M409.046,392.386c-0.27,0-0.491-0.214-0.5-0.484c-0.083-2.661-2.234-4.828-4.896-4.933
		c-0.276-0.011-0.491-0.243-0.48-0.519c0.011-0.275,0.193-0.5,0.52-0.48c3.185,0.125,5.758,2.717,5.857,5.9
		c0.009,0.276-0.208,0.507-0.484,0.515C409.057,392.386,409.051,392.386,409.046,392.386z"/>
</g>
<g>
	<path style="fill:#E4E4E3;" d="M391.712,401.785h-0.556c-0.276,0-0.5-0.224-0.5-0.5s0.224-0.5,0.5-0.5h0.412
		c5.668-3.56,9.146-7.757,11.601-13.994v-21.337c-2.428-6.167-6.012-10.49-11.601-13.993h-0.412c-0.276,0-0.5-0.224-0.5-0.5
		s0.224-0.5,0.5-0.5h0.556c0.094,0,0.185,0.026,0.264,0.075c5.88,3.655,9.63,8.17,12.159,14.641c0.022,0.058,0.034,0.12,0.034,0.182
		v21.527c0,0.062-0.012,0.124-0.034,0.182c-2.524,6.459-6.274,10.975-12.158,14.642
		C391.897,401.759,391.806,401.785,391.712,401.785z"/>
</g>
<g>
	<path style="fill:#E4E4E3;" d="M426.058,402.933c-0.073,0-0.146-0.016-0.216-0.049c-0.249-0.119-0.354-0.418-0.235-0.667
		c4.073-8.49,5.66-15.806,5.66-26.094c0-10.284-1.585-17.6-5.653-26.095c-0.119-0.249-0.014-0.547,0.235-0.667
		c0.247-0.12,0.548-0.014,0.667,0.235c4.139,8.642,5.751,16.079,5.751,26.526c0,10.452-1.614,17.89-5.758,26.527
		C426.423,402.828,426.243,402.933,426.058,402.933z"/>
</g>
<g>
	<path style="fill:#E4E4E3;" d="M415.472,418.549c-2.166,0-4.064-0.7-5.032-1.3c-1.274-0.793-1.894-1.821-1.894-3.144v-75.95
		c0-1.328,0.619-2.359,1.894-3.151c0.973-0.604,2.874-1.308,5.032-1.308c0.345,0,1.042,0.016,1.394,0.031
		c1.986,0.096,3.621,0.64,5.302,1.764c0.331,0.226,0.627,0.457,0.914,0.688c1.146,0.964,1.984,2.018,2.645,3.322
		c0.174,0.334,0.328,0.648,0.482,0.964l0.052,0.105c0.198,0.377,0.298,0.783,0.298,1.229v68.654c0,0.448-0.096,0.843-0.303,1.245
		l-0.498,0.991c-0.007,0.019-0.016,0.038-0.024,0.056c-0.668,1.304-1.533,2.388-2.645,3.314c-0.285,0.238-0.577,0.459-0.877,0.681
		c-1.743,1.156-3.378,1.698-5.346,1.784C416.514,418.541,415.816,418.549,415.472,418.549z M415.472,334.696
		c-1.948,0-3.645,0.624-4.505,1.157c-0.982,0.611-1.421,1.321-1.421,2.302v75.95c0,0.975,0.438,1.683,1.422,2.295
		c0.854,0.53,2.548,1.149,4.504,1.149c0.333,0,1.009-0.007,1.349-0.023c1.777-0.078,3.255-0.568,4.792-1.589
		c0.287-0.21,0.565-0.42,0.835-0.645c1.013-0.845,1.77-1.792,2.382-2.977c0.007-0.017,0.014-0.033,0.021-0.048l-0.001-0.001
		l0.514-1.021c0.137-0.266,0.194-0.502,0.194-0.792v-68.654c0-0.283-0.061-0.53-0.189-0.776l-0.059-0.118
		c-0.15-0.308-0.3-0.614-0.458-0.915c-0.616-1.217-1.375-2.171-2.406-3.039c-0.259-0.209-0.533-0.424-0.815-0.617
		c-1.54-1.03-3.019-1.522-4.812-1.608C416.48,334.711,415.805,334.696,415.472,334.696z M425.295,412.495h0.01H425.295z"/>
</g>
<g>
	<path style="fill:#E4E4E3;" d="M391.156,198.438c-0.269,0-0.49-0.213-0.5-0.483c-0.009-0.276,0.207-0.507,0.482-0.517l4.931-0.17
		c1.977-0.069,3.615-1.598,3.812-3.556c0.213-2.143,0.768-9.198,0.768-16.021c0-6.832-0.555-13.887-0.768-16.029
		c-0.196-1.955-1.835-3.48-3.812-3.549l-4.931-0.177c-0.276-0.01-0.492-0.242-0.482-0.518c0.01-0.275,0.25-0.484,0.518-0.481
		l4.931,0.177c2.475,0.085,4.526,1.998,4.771,4.449c0.216,2.156,0.773,9.256,0.773,16.129c0,6.865-0.558,13.964-0.773,16.121
		c-0.246,2.455-2.298,4.37-4.771,4.456l-4.931,0.17C391.168,198.438,391.162,198.438,391.156,198.438z"/>
</g>
<g>
	<path style="fill:#E4E4E3;" d="M391.156,240.364c-0.269,0-0.49-0.213-0.5-0.483c-0.009-0.276,0.207-0.507,0.482-0.517l4.931-0.169
		c1.977-0.068,3.615-1.594,3.812-3.549c0.213-2.151,0.768-9.225,0.768-16.029c0-6.823-0.555-13.878-0.768-16.021
		c-0.197-1.959-1.836-3.488-3.812-3.557l-4.931-0.169c-0.275-0.009-0.491-0.241-0.482-0.517c0.01-0.276,0.25-0.503,0.518-0.482
		l4.931,0.169c2.474,0.085,4.525,2.001,4.771,4.456c0.216,2.157,0.773,9.256,0.773,16.121c0,6.844-0.558,13.963-0.773,16.128
		c-0.246,2.452-2.298,4.364-4.771,4.449l-4.931,0.169C391.168,240.364,391.162,240.364,391.156,240.364z"/>
</g>
<g>
	<path style="fill:#E4E4E3;" d="M391.156,282.299c-0.269,0-0.49-0.213-0.5-0.483c-0.009-0.276,0.207-0.507,0.482-0.517l4.931-0.169
		c1.977-0.076,3.616-1.602,3.812-3.55c0.213-2.151,0.768-9.229,0.768-16.036c0-6.797-0.555-13.87-0.768-16.021
		c-0.197-1.958-1.836-3.488-3.812-3.557l-4.93-0.168c-0.276-0.009-0.492-0.241-0.483-0.517c0.01-0.27,0.231-0.483,0.5-0.483
		c0.006,0,0.012,0,0.017,0l4.931,0.168c2.475,0.086,4.526,2.002,4.772,4.457c0.216,2.166,0.773,9.283,0.773,16.121
		c0,6.848-0.558,13.97-0.773,16.136c-0.245,2.442-2.296,4.354-4.77,4.449l-4.933,0.169
		C391.168,282.299,391.162,282.299,391.156,282.299z"/>
</g>
<g>
	<path style="fill:#E4E4E3;" d="M313.22,158.467c-0.006,0-0.012,0-0.019,0l-7.689-0.278c-1.425-0.045-2.189-0.652-2.553-2.028
		c-0.005-0.019-0.017-0.09-0.019-0.108c-0.938-3.527-1.4-7.074-1.4-10.79c0-3.72,0.461-7.27,1.411-10.853
		c0.374-1.43,1.138-2.037,2.562-2.082l7.688-0.269c0.266-0.018,0.508,0.206,0.517,0.482c0.01,0.276-0.206,0.508-0.482,0.517
		l-7.689,0.269c-0.978,0.032-1.371,0.344-1.622,1.286c-0.935,3.551-1.386,7.018-1.386,10.65c0,3.627,0.451,7.091,1.378,10.589
		c0.005,0.018,0.017,0.09,0.019,0.108c0.241,0.898,0.619,1.198,1.609,1.23l7.691,0.278c0.276,0.01,0.492,0.242,0.481,0.518
		C313.709,158.255,313.488,158.467,313.22,158.467z"/>
</g>
<g>
	<path style="fill:#E4E4E3;" d="M355.446,252.144c-0.005,0-0.01,0-0.016,0h-6.478c-0.005,0-0.01,0-0.016,0
		c-1.991,0-3.864-0.774-5.274-2.182c-1.417-1.415-2.198-3.299-2.198-5.307v-33.313c0-4.125,3.359-7.48,7.488-7.48h6.479
		c4.125,0,7.48,3.356,7.48,7.48v33.313c0,2.008-0.781,3.893-2.199,5.309C359.304,251.37,357.434,252.144,355.446,252.144z
		 M348.952,251.144h6.48c0.004,0,0.009,0,0.014,0c1.722,0,3.341-0.67,4.561-1.888c1.229-1.227,1.906-2.86,1.906-4.601v-33.313
		c0-3.573-2.907-6.48-6.48-6.48h-6.479c-3.577,0-6.488,2.907-6.488,6.48v33.313c0,1.74,0.676,3.373,1.905,4.599
		c1.221,1.219,2.843,1.89,4.568,1.89C348.943,251.144,348.947,251.144,348.952,251.144z"/>
</g>
<g>
	<path style="fill:#E4E4E3;" d="M355.444,480.246c-0.004,0-0.009,0-0.014,0h-6.478c-0.004,0-0.009,0-0.014,0
		c-1.993,0-3.867-0.775-5.278-2.184c-1.416-1.413-2.196-3.294-2.196-5.296v-33.313c0-4.125,3.359-7.48,7.488-7.48h6.479
		c4.125,0,7.48,3.356,7.48,7.48v33.313c0,2.003-0.78,3.885-2.196,5.298C359.306,479.471,357.434,480.246,355.444,480.246z
		 M348.952,479.246h6.48c0.004,0,0.008,0,0.012,0c1.724,0,3.345-0.671,4.566-1.89c1.227-1.225,1.903-2.855,1.903-4.591v-33.313
		c0-3.573-2.907-6.48-6.48-6.48h-6.479c-3.577,0-6.488,2.907-6.488,6.48v33.313c0,1.735,0.675,3.364,1.902,4.589
		c1.222,1.22,2.846,1.892,4.573,1.892C348.944,479.246,348.948,479.246,348.952,479.246z"/>
</g>
<g>
	<path style="fill:#E4E4E3;" d="M376.064,78.69c-0.27,0-0.492-0.215-0.5-0.486l-0.124-4.461c-0.052-1.542-0.59-2.099-2.13-2.204
		c-0.521-0.042-1.067-0.061-1.722-0.061h-20.794c-1.244,0-2.252,0.973-2.297,2.215l-0.1,3.993c-0.007,0.275-0.21,0.489-0.513,0.487
		c-0.276-0.007-0.494-0.236-0.487-0.513l0.1-3.998c0.064-1.788,1.512-3.184,3.297-3.184h20.794c0.682,0,1.252,0.02,1.795,0.063
		c2.042,0.14,2.987,1.117,3.056,3.17l0.125,4.465c0.007,0.276-0.21,0.506-0.486,0.514C376.074,78.69,376.069,78.69,376.064,78.69z"
		/>
</g>
<g>
	<path style="fill:#E4E4E3;" d="M352.188,401.292c-4.609,0-8.358-3.75-8.358-8.358s3.75-8.358,8.358-8.358
		c4.613,0,8.367,3.75,8.367,8.358S356.802,401.292,352.188,401.292z M352.188,385.575c-4.058,0-7.358,3.301-7.358,7.358
		s3.301,7.358,7.358,7.358c4.062,0,7.367-3.301,7.367-7.358S356.25,385.575,352.188,385.575z"/>
</g>
<g>
	<path style="fill:#E4E4E3;" d="M370.641,258.338h-36.896c-0.276,0-0.5-0.224-0.5-0.5s0.224-0.5,0.5-0.5h36.896
		c0.276,0,0.5,0.224,0.5,0.5S370.917,258.338,370.641,258.338z"/>
</g>
<g>
	<path style="fill:#E4E4E3;" d="M370.641,426.777h-36.896c-0.276,0-0.5-0.224-0.5-0.5s0.224-0.5,0.5-0.5h36.896
		c0.276,0,0.5,0.224,0.5,0.5S370.917,426.777,370.641,426.777z"/>
</g>
<g>
	<path style="fill:#E4E4E3;" d="M370.641,486.44h-36.896c-0.276,0-0.5-0.224-0.5-0.5s0.224-0.5,0.5-0.5h36.896
		c0.276,0,0.5,0.224,0.5,0.5S370.917,486.44,370.641,486.44z"/>
</g>
<g>
	<path style="fill:#E4E4E3;" d="M370.641,198.669h-36.896c-0.276,0-0.5-0.224-0.5-0.5s0.224-0.5,0.5-0.5h36.896
		c0.276,0,0.5,0.224,0.5,0.5S370.917,198.669,370.641,198.669z"/>
</g>
<g>
	<path style="fill:#E4E4E3;" d="M355.242,297.769h-6.105c-1.367,0-2.479-1.112-2.479-2.479v-6.105c0-1.367,1.112-2.479,2.479-2.479
		h6.105c1.366,0,2.478,1.112,2.478,2.479v6.105C357.72,296.657,356.608,297.769,355.242,297.769z M349.136,287.706
		c-0.816,0-1.479,0.664-1.479,1.479v6.105c0,0.815,0.664,1.479,1.479,1.479h6.105c0.815,0,1.478-0.664,1.478-1.479v-6.105
		c0-0.815-0.663-1.479-1.478-1.479H349.136z"/>
</g>
<g>
	<path style="fill:#E4E4E3;" d="M355.242,320.127h-6.105c-1.367,0-2.479-1.112-2.479-2.479v-6.104c0-1.367,1.112-2.479,2.479-2.479
		h6.105c1.366,0,2.478,1.112,2.478,2.479v6.104C357.72,319.015,356.608,320.127,355.242,320.127z M349.136,310.064
		c-0.816,0-1.479,0.664-1.479,1.479v6.104c0,0.816,0.664,1.479,1.479,1.479h6.105c0.815,0,1.478-0.664,1.478-1.479v-6.104
		c0-0.816-0.663-1.479-1.478-1.479H349.136z"/>
</g>
<g>
	<path style="fill:#E4E4E3;" d="M355.239,342.489h-6.1c-1.366,0-2.477-1.111-2.477-2.478v-6.108c0-1.366,1.111-2.478,2.477-2.478
		h6.1c1.365,0,2.476,1.112,2.476,2.478v6.108C357.715,341.378,356.604,342.489,355.239,342.489z M349.139,332.425
		c-0.814,0-1.477,0.663-1.477,1.478v6.108c0,0.815,0.663,1.478,1.477,1.478h6.1c0.814,0,1.476-0.663,1.476-1.478v-6.108
		c0-0.815-0.662-1.478-1.476-1.478H349.139z"/>
</g>
<g>
	<path style="fill:#E4E4E3;" d="M355.247,364.855h-6.109c-1.366,0-2.477-1.112-2.477-2.478v-6.099c0-1.371,1.111-2.486,2.477-2.486
		h6.109c1.366,0,2.477,1.115,2.477,2.486v6.099C357.724,363.743,356.612,364.855,355.247,364.855z M349.138,354.792
		c-0.801,0-1.477,0.681-1.477,1.486v6.099c0,0.815,0.663,1.478,1.477,1.478h6.109c0.814,0,1.477-0.663,1.477-1.478v-6.099
		c0-0.819-0.663-1.486-1.477-1.486H349.138z"/>
</g>
<g>
	<path style="fill:#E4E4E3;" d="M375.936,585.556h-47.492c-1.993-0.009-2.949-0.941-3.011-2.935V113.683
		c0.007-3.352,2.737-6.078,6.085-6.078h41.341c1.757,0.008,3.041,0.54,4.295,1.777c1.247,1.256,1.781,2.54,1.79,4.298
		c0,0.001,0,0.001,0,0.002v468.923C378.892,584.613,377.936,585.547,375.936,585.556z M331.518,108.605
		c-2.798,0-5.079,2.278-5.085,5.079v468.922c0.045,1.447,0.553,1.943,2.014,1.95h47.487c1.464-0.007,1.973-0.502,2.011-1.964
		V113.683v0.002c-0.007-1.491-0.44-2.532-1.496-3.595c-1.062-1.047-2.104-1.479-3.592-1.485H331.518z"/>
</g>
<g>
	<path style="fill:#E4E4E3;" d="M391.156,504.522c-0.276,0-0.5-0.224-0.5-0.5s0.224-0.5,0.5-0.5l5.671-0.038
		c1.321-0.052,1.85-0.478,2.144-1.745v-39.827c-0.294-1.266-0.822-1.692-2.147-1.744l-1.214-0.039l-4.453,0
		c-0.276,0-0.5-0.224-0.5-0.5s0.224-0.5,0.5-0.5l5.702,0.04c1.787,0.07,2.714,0.841,3.101,2.578
		c0.008,0.036,0.012,0.072,0.012,0.109v39.939c0,0.037-0.004,0.073-0.012,0.109c-0.388,1.737-1.313,2.509-3.097,2.579l-1.222,0.039
		L391.156,504.522z"/>
</g>
<g>
	<path style="fill:#E4E4E3;" d="M391.156,148.066c-0.271,0-0.494-0.216-0.5-0.489c-0.006-0.276,0.213-0.505,0.488-0.511l6.75-0.154
		c0.489-0.02,0.59-0.125,0.59-0.625V119.63c0-0.492-0.1-0.595-0.593-0.609c-0.03-0.001-0.06-0.004-0.088-0.011l-6.659-0.151
		c-0.275-0.006-0.494-0.235-0.488-0.511c0.006-0.276,0.249-0.488,0.512-0.489l6.75,0.154c0.035,0.001,0.069,0.005,0.103,0.013
		c0.972,0.062,1.464,0.601,1.464,1.604v26.657c0,1.036-0.524,1.583-1.558,1.625l-6.759,0.154
		C391.164,148.066,391.16,148.066,391.156,148.066z"/>
</g>
<g>
	<path style="fill:#E4E4E3;" d="M391.156,137.611c-0.271,0-0.493-0.216-0.5-0.488c-0.007-0.276,0.212-0.505,0.488-0.512l6.75-0.162
		c0.489-0.02,0.59-0.122,0.59-0.609v-5.747c0-0.5-0.101-0.605-0.599-0.625l-6.741-0.153c-0.275-0.006-0.494-0.235-0.488-0.511
		c0.006-0.276,0.249-0.478,0.512-0.489l6.75,0.154c1.042,0.042,1.566,0.589,1.566,1.625v5.747c0,1.026-0.524,1.567-1.558,1.609
		l-6.759,0.162C391.164,137.611,391.16,137.611,391.156,137.611z"/>
</g>
<g>
	<g>
		<path style="fill:#E4E4E3;" d="M986.867,591.758c-0.946,0-2.154-0.01-3.6-0.029l-0.178-0.002
			c-1.012-0.061-1.588-0.475-1.956-1.385l-2.013-4.577c-0.027-0.063-0.042-0.132-0.042-0.201l-0.029-18.64
			c-0.04-0.14-0.045-0.158-0.547-0.158c-0.007,0-0.013,0-0.019,0h-6.164c-0.276,0-0.5-0.224-0.5-0.5s0.224-0.5,0.5-0.5h6.124
			c0.521,0.003,1.342-0.003,1.589,0.989l0.044,0.401l0.002,18.302l1.977,4.495c0.229,0.567,0.467,0.738,1.065,0.774l0.16,0.001
			c3.715,0.051,5.104,0.026,5.618-0.001c1.017-0.055,1.589-0.52,2.042-1.657c0.121-0.297,0.177-0.569,0.177-0.863v-88.51
			c-0.009-3.244-0.626-6.133-1.944-9.089c-0.53-1.184-1.549-2.115-2.533-3.016c-1.426-1.304-2.899-2.653-2.899-4.776v-45.408
			c0-2.123,1.474-3.471,2.899-4.775c0.984-0.901,2.003-1.833,2.534-3.017c1.317-2.948,1.935-5.834,1.943-9.082V268.095
			c-0.009-3.247-0.626-6.132-1.943-9.081c-0.531-1.184-1.55-2.116-2.534-3.017c-1.426-1.304-2.899-2.652-2.899-4.775v-45.416
			c0-2.125,1.476-3.474,2.903-4.777c0.983-0.899,2-1.828,2.53-3.008c1.317-2.955,1.935-5.843,1.943-9.089v-79.293
			c-0.007-1.264-0.976-2.286-2.204-2.356l-16.594,0.001c-0.276,0-0.5-0.224-0.5-0.5s0.224-0.5,0.5-0.5h16.606
			c1.799,0.101,3.181,1.559,3.191,3.32v79.33c-0.009,3.391-0.654,6.408-2.03,9.496c-0.616,1.37-1.711,2.37-2.77,3.337
			c-1.383,1.264-2.577,2.355-2.577,4.039v45.416c0,1.683,1.193,2.774,2.574,4.037c1.06,0.97,2.156,1.973,2.771,3.346
			c1.377,3.081,2.022,6.096,2.031,9.488v152.442c-0.009,3.394-0.654,6.409-2.031,9.489c-0.615,1.374-1.712,2.377-2.771,3.347
			c-1.381,1.263-2.574,2.354-2.574,4.037v45.408c0,1.683,1.193,2.774,2.574,4.038c1.061,0.97,2.156,1.973,2.771,3.346
			c1.377,3.089,2.022,6.106,2.031,9.496v88.511c0,0.422-0.081,0.826-0.249,1.236c-0.598,1.502-1.497,2.207-2.916,2.282
			C988.565,591.747,987.86,591.758,986.867,591.758z"/>
	</g>
	<g>
		<path style="fill:#E4E4E3;" d="M984.397,252.7c-0.274,0-0.498-0.221-0.5-0.496c-0.002-0.276,0.22-0.502,0.496-0.504l3.629-0.031
			c1.294-0.046,3.376-1.133,3.376-2.332v-41.639c0-1.104-1.971-2.288-3.388-2.332l-3.617-0.031
			c-0.276-0.002-0.498-0.228-0.496-0.504c0.002-0.276,0.195-0.506,0.504-0.496l3.629,0.031c1.766,0.055,4.368,1.478,4.368,3.332
			v41.607c0,1.873-2.601,3.3-4.354,3.362l-3.643,0.032C984.4,252.7,984.398,252.7,984.397,252.7z"/>
	</g>
	<g>
		<path style="fill:#E4E4E3;" d="M984.397,484.295c-0.274,0-0.498-0.221-0.5-0.496c-0.002-0.276,0.22-0.502,0.496-0.504l3.629-0.031
			c1.405-0.044,3.376-1.227,3.376-2.332v-41.639c0-1.199-2.082-2.285-3.39-2.332l-3.615-0.031c-0.276-0.002-0.498-0.228-0.496-0.504
			c0.002-0.276,0.195-0.496,0.504-0.496l3.629,0.031c1.768,0.063,4.368,1.49,4.368,3.332v41.607c0,1.885-2.603,3.308-4.356,3.363
			l-3.641,0.031C984.4,484.295,984.398,484.295,984.397,484.295z"/>
	</g>
	<g>
		<path style="fill:#E4E4E3;" d="M969.496,648.439h-65.504c-66.01,0-119.712-53.699-119.712-119.705V195.074
			c0,0.007,0,0.007,0,0.007v-0.007c0-0.003,0-0.007,0-0.011c0-0.016,0-0.029,0-0.045c0.003-7.705,0.702-15.169,2.117-22.516
			c4.519-23.723,16.162-45.399,33.886-62.553c23.032-22.294,53.767-34.572,86.54-34.572h59.833c3.406,0,6.171,2.768,6.171,6.171
			v563.558C972.827,646.943,971.333,648.439,969.496,648.439z M785.28,195.074v333.659c0,65.454,53.254,118.705,118.712,118.705
			h65.504c1.285,0,2.331-1.046,2.331-2.332V81.549c0-2.851-2.316-5.171-5.163-5.171h-59.841c-32.513,0-63,12.178-85.845,34.29
			c-12.857,12.445-22.488,27.291-28.486,43.575c0.002,0.062-0.008,0.125-0.03,0.186c-2.203,6.039-3.891,12.088-5.074,18.221
			c-1.391,7.285-2.104,14.767-2.107,22.369c0,0.015,0,0.03,0,0.045c0,0.006,0,0.012,0,0.018V195.074z"/>
	</g>
	<g>
		<path style="fill:#E4E4E3;" d="M929.375,503.944h-26.494c-2.467,0-4.474-2.007-4.474-4.474v-26.494
			c0-2.462,2.007-4.466,4.474-4.466h26.494c2.467,0,4.474,2.003,4.474,4.466v26.494
			C933.849,501.938,931.842,503.944,929.375,503.944z M902.881,469.511c-1.915,0-3.474,1.555-3.474,3.466v26.494
			c0,1.916,1.559,3.474,3.474,3.474h26.494c1.915,0,3.474-1.558,3.474-3.474v-26.494c0-1.911-1.559-3.466-3.474-3.466H902.881z"/>
	</g>
	<g>
		<path style="fill:#E4E4E3;" d="M916.124,498.078c-6.534,0-11.85-5.319-11.85-11.858c0-6.534,5.315-11.85,11.85-11.85
			c6.539,0,11.858,5.316,11.858,11.85C927.982,492.758,922.663,498.078,916.124,498.078z M916.124,475.37
			c-5.982,0-10.85,4.867-10.85,10.85c0,5.987,4.867,10.858,10.85,10.858c5.987,0,10.858-4.871,10.858-10.858
			C926.982,480.237,922.111,475.37,916.124,475.37z"/>
	</g>
	<g>
		<path style="fill:#E4E4E3;" d="M840.061,400.096c-11.667,0-21.158-9.488-21.158-21.151c0-11.671,9.491-21.166,21.158-21.166
			c11.671,0,21.166,9.495,21.166,21.166C861.227,390.607,851.731,400.096,840.061,400.096z M840.061,358.779
			c-11.115,0-20.158,9.046-20.158,20.166c0,11.111,9.043,20.151,20.158,20.151c11.119,0,20.166-9.04,20.166-20.151
			C860.227,367.825,851.18,358.779,840.061,358.779z"/>
	</g>
	<g>
		<path style="fill:#E4E4E3;" d="M884.905,357.527c-11.667,0-21.158-9.492-21.158-21.159s9.491-21.159,21.158-21.159
			s21.159,9.492,21.159,21.159S896.572,357.527,884.905,357.527z M884.905,316.21c-11.115,0-20.158,9.043-20.158,20.159
			s9.043,20.159,20.158,20.159c11.116,0,20.159-9.043,20.159-20.159S896.021,316.21,884.905,316.21z"/>
	</g>
	<g>
		<path style="fill:#E4E4E3;" d="M884.905,442.672c-11.667,0-21.158-9.492-21.158-21.159c0-11.671,9.491-21.167,21.158-21.167
			s21.159,9.495,21.159,21.167C906.064,433.181,896.572,442.672,884.905,442.672z M884.905,401.347
			c-11.115,0-20.158,9.047-20.158,20.167c0,11.116,9.043,20.159,20.158,20.159c11.116,0,20.159-9.043,20.159-20.159
			C905.064,410.394,896.021,401.347,884.905,401.347z"/>
	</g>
	<g>
		<path style="fill:#E4E4E3;" d="M929.751,400.096c-11.672,0-21.167-9.488-21.167-21.151c0-11.671,9.495-21.166,21.167-21.166
			c11.667,0,21.158,9.495,21.158,21.166C950.909,390.607,941.418,400.096,929.751,400.096z M929.751,358.779
			c-11.12,0-20.167,9.046-20.167,20.166c0,11.111,9.047,20.151,20.167,20.151c11.115,0,20.158-9.04,20.158-20.151
			C949.909,367.825,940.866,358.779,929.751,358.779z"/>
	</g>
	<g>
		<path style="fill:#E4E4E3;" d="M884.905,264.543c-24.563,0-44.547-19.984-44.547-44.547c0-24.568,19.983-44.555,44.547-44.555
			c24.568,0,44.556,19.987,44.556,44.555C929.461,244.559,909.474,264.543,884.905,264.543z M884.905,176.44
			c-24.012,0-43.547,19.539-43.547,43.555c0,24.012,19.535,43.547,43.547,43.547c24.017,0,43.556-19.535,43.556-43.547
			C928.461,195.979,908.922,176.44,884.905,176.44z"/>
	</g>
	<g>
		<path style="fill:#E4E4E3;" d="M883.787,189.254c0-0.767-0.007-1.525-0.007-2.292l0.007-7.127c0-0.759,0.571-0.68,1.127-0.68
			c0.563,0,1.141-0.087,1.141,0.68l0.008,7.127c0,0.767,0,1.525-0.008,2.292"/>
		<path style="fill:#E4E4E3;" d="M886.555,189.26l-1-0.012c0.009-0.765,0.009-1.521,0.009-2.286l-0.009-7.126
			c0-0.124-0.021-0.163-0.022-0.164c-0.051-0.025-0.307-0.023-0.455-0.019l-0.163,0.001l-0.15-0.001
			c-0.147,0-0.395-0.005-0.464,0.031c0.002,0.004-0.013,0.048-0.013,0.15l-0.008,7.127l0.008,2.291h-1l-0.008-2.292l0.008-7.127
			c0-0.369,0.105-0.659,0.312-0.864c0.331-0.328,0.798-0.321,1.177-0.316l0.138,0.001l0.149-0.001
			c0.375-0.002,0.847-0.012,1.178,0.315c0.208,0.205,0.313,0.497,0.313,0.867l0.009,7.126
			C886.563,187.731,886.563,188.491,886.555,189.26z"/>
	</g>
	<g>
		<path style="fill:#E4E4E3;" d="M854.187,221.138c-0.775,0-1.541,0-2.308,0h-7.118c-0.767,0-0.689-0.571-0.689-1.127
			c0-0.563-0.086-1.141,0.689-1.141l7.118-0.008c0.767,0.008,1.533,0.008,2.3,0.008"/>
		<path style="fill:#E4E4E3;" d="M854.188,221.638h-9.426c-0.372,0-0.666-0.106-0.872-0.314c-0.327-0.332-0.322-0.801-0.317-1.177
			l0.001-0.136l-0.001-0.147c-0.006-0.377-0.012-0.847,0.315-1.179c0.206-0.209,0.5-0.315,0.874-0.315l7.117-0.008
			c0.771,0.008,1.536,0.008,2.301,0.008v1c-0.769,0-1.536,0-2.305-0.008l-7.112,0.008c-0.129,0-0.17,0.023-0.171,0.023
			c-0.025,0.051-0.022,0.305-0.021,0.457l0.002,0.161l-0.001,0.148c-0.002,0.149-0.005,0.396,0.032,0.465h0.001
			c0.009,0,0.056,0.014,0.156,0.014h9.426V221.638z"/>
	</g>
	<g>
		<path style="fill:#E4E4E3;" d="M886.063,250.73c0,0.775,0,1.541,0,2.316v7.118c-0.008,0.759-0.578,0.681-1.126,0.681
			c-0.563,0.008-1.142,0.094-1.142-0.681l-0.015-7.118c0.007-0.775,0.007-1.541,0.007-2.316"/>
		<path style="fill:#E4E4E3;" d="M884.599,261.35c-0.336,0-0.708-0.039-0.985-0.31c-0.211-0.206-0.318-0.501-0.318-0.877
			l-0.016-7.117c0.008-0.779,0.008-1.544,0.008-2.317h1c0,0.776,0,1.544-0.008,2.321l0.016,7.112c0,0.129,0.022,0.169,0.023,0.17
			c0.053,0.025,0.31,0.019,0.464,0.015l0.147-0.003l0.154,0.001c0.15,0.002,0.396,0.005,0.463-0.033
			c-0.002-0.002,0.016-0.046,0.017-0.155v-9.428h1v9.434c-0.008,0.65-0.329,0.933-0.599,1.057c-0.285,0.132-0.606,0.128-0.893,0.125
			l-0.136-0.001l-0.129,0.003C884.74,261.348,884.67,261.35,884.599,261.35z"/>
	</g>
	<g>
		<path style="fill:#E4E4E3;" d="M915.663,218.87c0.767,0,1.533,0,2.3-0.008l7.119,0.008c0.767,0,0.688,0.571,0.688,1.126
			c0,0.563,0.087,1.142-0.688,1.142l-7.119,0.008c-0.767-0.008-1.533-0.008-2.307-0.008"/>
		<path style="fill:#E4E4E3;" d="M917.963,221.646c-0.771-0.008-1.536-0.008-2.308-0.008v-1c0.775,0,1.543,0,2.312,0.008
			l7.113-0.008c0.129,0,0.17-0.023,0.17-0.023c0.025-0.052,0.022-0.305,0.021-0.457l-0.002-0.163l0.001-0.149
			c0.002-0.148,0.005-0.394-0.031-0.463c-0.008,0.007-0.046-0.014-0.157-0.014l-7.12-0.008c-0.763,0.008-1.53,0.008-2.298,0.008v-1
			c0.002,0,0.004,0,0.006,0c0.762,0,1.524,0,2.288-0.008l7.125,0.008c0.371,0,0.665,0.105,0.87,0.314
			c0.328,0.332,0.322,0.799,0.317,1.175l-0.001,0.137l0.001,0.149c0.006,0.377,0.013,0.847-0.315,1.179
			c-0.205,0.209-0.499,0.315-0.873,0.315L917.963,221.646z"/>
	</g>
	<g>
		<path style="fill:#E4E4E3;" d="M884.921,251.151c-17.184,0-31.163-13.976-31.163-31.155s13.979-31.156,31.163-31.156
			c17.18,0,31.156,13.977,31.156,31.156S902.101,251.151,884.921,251.151z M884.921,189.84c-16.632,0-30.163,13.528-30.163,30.156
			c0,16.627,13.531,30.155,30.163,30.155c16.628,0,30.156-13.528,30.156-30.155C915.077,203.368,901.549,189.84,884.921,189.84z"/>
	</g>
	<g>
		<path style="fill:#E4E4E3;" d="M794.058,149.485c-0.001,0-0.002,0-0.002,0l-3.614-0.016c-1.752,0-2.671-0.84-3.132-1.545
			c-0.727-1.11-0.83-2.735-0.258-4.044c1.206-2.762,2.496-5.441,3.942-8.191c1.224-2.276,2.539-4.563,3.913-6.803
			c22.911-37.772,62.969-60.718,107.153-61.377h33.721c3.098,0,5.571,2.387,5.632,5.434l0.047,2.887
			c0.005,0.276-0.216,0.504-0.492,0.508c-0.002,0-0.005,0-0.008,0c-0.272,0-0.495-0.219-0.5-0.492l-0.047-2.886
			c-0.049-2.496-2.084-4.452-4.632-4.452h-33.713c-43.831,0.654-83.574,23.419-106.308,60.898c-1.365,2.226-2.671,4.497-3.884,6.752
			c-1.433,2.724-2.712,5.382-3.909,8.122c-0.436,0.997-0.362,2.27,0.179,3.096c0.475,0.725,1.247,1.092,2.297,1.092l3.616,0.016
			c0.276,0.001,0.499,0.226,0.498,0.502C794.557,149.263,794.333,149.485,794.058,149.485z"/>
	</g>
	<g>
		<path style="fill:#E4E4E3;" d="M955.807,136.891h-27.706c-0.541,0-0.939-0.137-1.219-0.418c-0.278-0.281-0.412-0.683-0.408-1.226
			v-6.475c-0.005-0.535,0.127-0.933,0.403-1.211c0.277-0.28,0.678-0.416,1.224-0.416h27.706c1.085,0,1.635,0.547,1.635,1.626v6.477
			C957.441,136.323,956.876,136.891,955.807,136.891z M928.101,128.146c-0.259,0-0.437,0.042-0.514,0.12
			c-0.076,0.077-0.115,0.25-0.113,0.502v6.481c0,0.001,0,0.003,0,0.004c-0.002,0.179,0.018,0.414,0.118,0.516
			c0.101,0.101,0.332,0.122,0.509,0.122h27.706c0.522,0,0.635-0.114,0.635-0.642v-6.477c0-0.521-0.106-0.626-0.635-0.626H928.101z
			 M926.974,135.249h0.01H926.974z"/>
	</g>
</g>
<g>
	<g>
		<path style="fill:#E4E4E3;" d="M1340.573,591.793c-0.994,0-1.699-0.011-2.087-0.032c-1.419-0.075-2.318-0.78-2.918-2.286
			c-0.165-0.403-0.246-0.808-0.246-1.232v-88.51c0.008-3.389,0.653-6.406,2.03-9.496c0.616-1.374,1.712-2.377,2.771-3.347
			c1.382-1.264,2.574-2.355,2.574-4.038v-45.408c0-1.683-1.192-2.774-2.574-4.038c-1.06-0.97-2.155-1.973-2.771-3.346
			c-1.378-3.084-2.023-6.099-2.031-9.489V268.13c0.008-3.392,0.653-6.406,2.031-9.489c0.615-1.374,1.711-2.376,2.771-3.346
			c1.382-1.264,2.574-2.355,2.574-4.038v-45.416c0-1.684-1.194-2.775-2.577-4.039c-1.059-0.968-2.153-1.968-2.768-3.336
			c-1.378-3.092-2.023-6.109-2.031-9.497v-79.295c0.009-1.795,1.391-3.253,3.146-3.354l16.651-0.001c0.276,0,0.5,0.224,0.5,0.5
			s-0.224,0.5-0.5,0.5h-16.606c-1.217,0.07-2.185,1.092-2.191,2.326v79.324c0.008,3.242,0.625,6.131,1.944,9.089
			c0.529,1.179,1.546,2.108,2.529,3.007c1.427,1.304,2.902,2.652,2.902,4.777v45.416c0,2.123-1.474,3.471-2.898,4.775
			c-0.985,0.901-2.003,1.833-2.534,3.017c-1.318,2.95-1.936,5.836-1.943,9.082v152.439c0.008,3.244,0.625,6.13,1.943,9.082
			c0.531,1.184,1.549,2.116,2.533,3.017c1.426,1.304,2.899,2.652,2.899,4.775v45.408c0,2.123-1.474,3.472-2.899,4.775
			c-0.984,0.901-2.002,1.833-2.533,3.017c-1.318,2.957-1.936,5.846-1.943,9.089v88.509c0,0.296,0.056,0.568,0.174,0.858
			c0.455,1.143,1.027,1.607,2.044,1.662c0.513,0.027,1.904,0.052,5.618,0.001l0.19-0.002c0.569-0.035,0.807-0.206,1.03-0.76
			l1.982-4.509l0.033-18.63c0.26-1.062,1.048-1.063,1.563-1.062h6.162c0.276,0,0.5,0.224,0.5,0.5s-0.224,0.5-0.5,0.5h-6.125
			c-0.517-0.003-0.564,0.018-0.617,0.231l-0.019,0.255l0.002,18.312c0,0.069-0.015,0.138-0.042,0.201l-2.019,4.591
			c-0.362,0.896-0.938,1.311-1.922,1.37l-0.207,0.003C1342.728,591.783,1341.52,591.793,1340.573,591.793z"/>
	</g>
	<g>
		<path style="fill:#E4E4E3;" d="M1343.042,252.735c-0.001,0-0.003,0-0.004,0l-3.629-0.031c-1.768-0.062-4.368-1.489-4.368-3.332
			v-41.639c0-1.854,2.603-3.277,4.356-3.332l3.641-0.031c0.001,0,0.003,0,0.004,0c0.274,0,0.498,0.221,0.5,0.496
			c0.002,0.276-0.22,0.502-0.496,0.504l-3.629,0.031c-1.405,0.044-3.376,1.227-3.376,2.332v41.607c0,1.23,2.082,2.316,3.39,2.363
			l3.615,0.031c0.276,0.002,0.498,0.228,0.496,0.504C1343.54,252.514,1343.316,252.735,1343.042,252.735z"/>
	</g>
	<g>
		<path style="fill:#E4E4E3;" d="M1343.042,484.33c-0.001,0-0.003,0-0.004,0l-3.629-0.031c-1.766-0.054-4.368-1.477-4.368-3.332
			v-41.638c0-1.843,2.601-3.269,4.354-3.331l3.643-0.032c0.001,0,0.003,0,0.004,0c0.274,0,0.498,0.221,0.5,0.496
			c0.002,0.276-0.22,0.502-0.496,0.504l-3.629,0.031c-1.294,0.046-3.376,1.132-3.376,2.332v41.607c0,1.136,1.971,2.319,3.388,2.363
			l3.617,0.031c0.276,0.002,0.498,0.228,0.496,0.504C1343.54,484.109,1343.316,484.33,1343.042,484.33z"/>
	</g>
	<g>
		<path style="fill:#E4E4E3;" d="M1503.285,155.781c-0.146,0-0.291-0.064-0.391-0.188c-0.172-0.215-0.138-0.53,0.078-0.703
			l5.385-4.312c0.214-0.173,0.528-0.139,0.703,0.078c0.172,0.215,0.138,0.53-0.078,0.703l-5.385,4.312
			C1503.506,155.746,1503.396,155.781,1503.285,155.781z"/>
	</g>
	<g>
		<path style="fill:#E4E4E3;" d="M1394.595,120.151c-0.276,0-0.5-0.224-0.5-0.5v-12.573c0-0.276,0.224-0.5,0.5-0.5
			s0.5,0.224,0.5,0.5v12.573C1395.095,119.927,1394.871,120.151,1394.595,120.151z"/>
	</g>
	<g>
		<path style="fill:#E4E4E3;" d="M1377.258,157.656c-7.236,0-13.123-5.886-13.123-13.122c0-7.237,5.887-13.125,13.123-13.125
			s13.123,5.888,13.123,13.125C1390.381,151.77,1384.494,157.656,1377.258,157.656z M1377.258,132.41
			c-6.685,0-12.123,5.439-12.123,12.125c0,6.684,5.438,12.122,12.123,12.122s12.123-5.438,12.123-12.122
			C1389.381,137.849,1383.942,132.41,1377.258,132.41z"/>
	</g>
	<g>
		<path style="fill:#E4E4E3;" d="M1423.464,648.474h-65.505c-1.841,0-3.339-1.498-3.339-3.339V81.581
			c0-3.401,2.767-6.171,6.167-6.175c0.001,0,0.01,0,0.01,0h62.667c49.386,0,94.29,31.268,111.739,77.807l0.592,1.405
			c0.612,1.453,1.247,2.957,1.642,4.03l0.188,0.463c3.734,11.85,5.543,23.613,5.543,35.999v333.66
			C1543.168,594.774,1489.469,648.474,1423.464,648.474z M1360.788,76.406c-2.85,0.003-5.168,2.325-5.168,5.175v563.554
			c0,1.29,1.049,2.339,2.339,2.339h65.505c65.454,0,118.704-53.25,118.704-118.704v-333.66c0-12.283-1.793-23.947-5.482-35.66
			l-0.182-0.441c-0.393-1.067-1.022-2.559-1.631-4.002l-0.599-1.425c-17.311-46.167-61.839-77.174-110.811-77.174H1360.788z"/>
	</g>
	<g>
		<path style="fill:#E4E4E3;" d="M1456.826,194.363c-6.482,0-13.049-0.823-19.464-2.687c-27.476-7.979-37.382-24.332-42.943-37.686
			c-0.105-0.255,0.015-0.548,0.27-0.654c0.252-0.106,0.548,0.014,0.654,0.269c10.423,25.031,28.08,32.981,42.299,37.111
			c24.261,7.047,50.748-0.985,66.233-12.072c0.221-0.16,0.536-0.11,0.697,0.116c0.161,0.225,0.109,0.537-0.115,0.698
			C1492.868,187.756,1475.188,194.363,1456.826,194.363z"/>
	</g>
	<g>
		<path style="fill:#E4E4E3;" d="M1516.846,142.551c-0.02,0-0.038-0.001-0.058-0.003c-1.677-0.19-3.226-0.839-4.604-1.929
			c-3.371-2.667-6.177-5-9.146-7.471c-1.859-1.546-3.758-3.126-5.858-4.837c-4.589-3.741-10.031-7.707-17.563-13.195
			c-10.676-7.778-22.049-11.789-34.786-12.273c-5.658-0.215-11.45,0.163-17.055,0.528c-8.822,0.576-17.155,1.12-23.92-0.694
			c-4.377-1.173-6.044-5.709-7.383-9.354c-0.158-0.429-0.312-0.847-0.465-1.247c-0.099-0.258,0.03-0.547,0.288-0.646
			c0.257-0.099,0.547,0.03,0.646,0.288c0.155,0.404,0.311,0.827,0.47,1.26c1.325,3.606,2.827,7.694,6.704,8.733
			c6.605,1.771,14.858,1.231,23.595,0.662c5.628-0.367,11.449-0.749,17.157-0.53c12.943,0.493,24.496,4.565,35.319,12.451
			c7.563,5.511,13.015,9.484,17.625,13.242c2.103,1.714,4.005,3.296,5.866,4.844c2.965,2.467,5.767,4.797,9.128,7.456
			c1.229,0.972,2.606,1.551,4.096,1.72c0.274,0.031,0.472,0.279,0.44,0.553C1517.312,142.362,1517.097,142.551,1516.846,142.551z"/>
	</g>
	<g>
		<path style="fill:#E4E4E3;" d="M1532.988,149.521c-0.275,0-0.499-0.223-0.5-0.498c-0.001-0.276,0.222-0.501,0.498-0.502
			l4.016-0.016c1.052,0,1.825-0.368,2.299-1.093c0.54-0.826,0.613-2.099,0.178-3.095c-1.194-2.736-2.473-5.395-3.91-8.126
			c-1.209-2.249-2.516-4.52-3.88-6.746c-22.734-37.48-62.479-60.247-106.317-60.9l-33.706-0.07c-2.504,0-4.582,2.03-4.632,4.524
			l-0.046,2.883c-0.005,0.276-0.201,0.507-0.508,0.492c-0.276-0.004-0.496-0.232-0.492-0.508l0.046-2.886
			c0.062-3.037,2.588-5.506,5.633-5.506l33.714,0.07c44.191,0.659,84.249,23.605,107.162,61.38c1.373,2.24,2.689,4.527,3.909,6.796
			c1.45,2.758,2.74,5.438,3.943,8.196c0.572,1.308,0.47,2.933-0.257,4.043c-0.461,0.705-1.379,1.545-3.134,1.545l-4.014,0.016
			C1532.989,149.521,1532.989,149.521,1532.988,149.521z"/>
	</g>
	<g>
		<path style="fill:#E4E4E3;" d="M1513.917,153.622c-0.901,0-1.857-0.215-2.848-0.642c-1.299-0.562-2.435-1.392-3.279-2.052
			c-0.98-0.77-2.001-1.654-3.213-2.785c-0.473-0.443-0.939-0.888-1.405-1.337c-0.742-0.714-1.479-1.433-2.217-2.151
			c-1.064-1.037-2.13-2.075-3.208-3.1c-1.382-1.312-2.673-2.496-3.946-3.618c-1.409-1.239-2.846-2.446-4.269-3.587
			c-1.348-1.081-2.707-2.116-4.039-3.077c-11.5-8.313-23.089-13.123-36.471-15.136c-1.14-0.173-2.304-0.324-3.459-0.449
			c-1.177-0.126-2.406-0.224-3.672-0.292c-4.492-0.242-9.063-0.208-13.48-0.176c-2.116,0.015-4.229,0.032-6.347,0.018l-2-0.008
			c-4.737-0.014-9.636-0.028-14.481-0.845c-2.878-0.493-5.273-1.132-7.619-2.647c-0.302-0.195-2.235-1.939-2.894-2.918
			c-0.779-1.162-1.354-2.269-1.809-3.485l-0.249-0.657c-0.136-0.371-0.261-0.737-0.378-1.105c-0.124-0.394-0.243-0.788-0.355-1.182
			c-0.226-0.795-0.443-1.661-0.686-2.724c-0.524-2.305-0.867-4.212-1.08-6.003l-0.117-1.161c-0.067-0.698-0.131-1.358,0.154-2.279
			c0.287-0.926,1.435-3.457,1.483-3.564c0.209-0.44,0.464-0.836,0.687-1.173c0.202-0.309,0.408-0.583,0.629-0.836
			c0.432-0.493,0.965-1.038,1.659-1.344c1.189-0.527,2.806-1.167,3.744-1.214l0,0c6.672-0.34,22.197-0.003,22.353,0
			c41.065,0,79.955,21.861,101.597,57.082c0.026,0.028,0.051,0.06,0.071,0.095c0.18,0.307,0.36,0.623,0.521,0.943
			c0.132,0.268,0.251,0.543,0.35,0.828c0.199,0.564,0.322,1.172,0.363,1.803c0.085,1.296-0.16,2.691-0.728,4.147
			c-0.302,0.773-1.246,3.075-1.246,3.075c-0.61,1.498-1.528,1.908-2.499,2.342l-0.37,0.168c-0.983,0.459-2.062,0.75-3.297,0.89
			c-0.527,0.067-1.063,0.117-1.604,0.147C1514.149,153.618,1514.033,153.622,1513.917,153.622z M1433.058,114.197
			c2.95,0,5.933,0.041,8.889,0.2c1.282,0.07,2.53,0.169,3.709,0.296c1.186,0.128,2.363,0.281,3.517,0.456
			c13.545,2.038,25.272,6.904,36.906,15.313c1.346,0.971,2.719,2.016,4.079,3.107c1.436,1.15,2.883,2.367,4.304,3.617
			c1.283,1.13,2.583,2.322,3.976,3.644c1.081,1.028,2.148,2.068,3.217,3.108c0.735,0.717,1.472,1.435,2.212,2.147
			c0.464,0.446,0.927,0.889,1.395,1.328c1.189,1.11,2.19,1.978,3.146,2.728c0.797,0.623,1.866,1.405,3.06,1.921
			c0.972,0.419,1.891,0.601,2.739,0.551c0.519-0.029,1.031-0.077,1.542-0.142c1.148-0.13,2.098-0.385,2.995-0.804l0.384-0.174
			c0.916-0.41,1.521-0.681,1.981-1.808c0.001-0.002,0.94-2.291,1.24-3.06c0.514-1.318,0.736-2.569,0.661-3.718
			c-0.035-0.54-0.139-1.057-0.31-1.538c-0.086-0.247-0.188-0.484-0.302-0.714c-0.09-0.181-0.188-0.36-0.288-0.538
			c-0.009-0.012-0.017-0.024-0.024-0.037c-21.413-35.152-60.11-56.989-100.99-56.989c-0.167-0.003-15.653-0.339-22.291,0l0,0
			c-0.604,0.031-1.84,0.442-3.391,1.129c-0.516,0.229-0.951,0.678-1.311,1.088c-0.199,0.229-0.38,0.473-0.547,0.728
			c-0.204,0.31-0.437,0.671-0.615,1.045c-0.008,0.017-1.166,2.572-1.435,3.438c-0.226,0.729-0.176,1.24-0.113,1.887l0.114,1.146
			c0.208,1.749,0.546,3.623,1.062,5.892c0.238,1.045,0.453,1.895,0.674,2.673c0.108,0.384,0.226,0.769,0.346,1.152
			c0.113,0.353,0.232,0.707,0.361,1.058l0.248,0.653c0.429,1.144,0.969,2.186,1.703,3.28c0.572,0.851,2.384,2.484,2.607,2.637
			c2.201,1.422,4.487,2.028,7.242,2.5c4.764,0.803,9.621,0.817,14.317,0.831l2.003,0.008c2.114,0.013,4.223-0.003,6.333-0.018
			C1429.939,114.209,1431.494,114.197,1433.058,114.197z M1398.778,82.592h0.01H1398.778z"/>
	</g>
	<g>
		<path style="fill:#E4E4E3;" d="M1520.894,158.829c-3.351-0.06-6.622-0.162-9.895-0.749c-3.714-0.696-7.158-1.85-10.533-3.527
			l-3.929-2.034c-4.243-2.274-8.306-4.927-12.234-7.494c-2.021-1.319-4.109-2.684-6.193-3.978
			c-6.988-4.385-14.18-7.806-21.987-10.461c-8.978-3.031-17.062-4.443-25.441-4.443l-19.608,0.042c-0.022,0-0.046,0-0.068,0
			c-7.496,0-12.965-2.276-18.278-7.605l-0.957-1.003c-3.185-3.184-5.781-12.634-5.781-21.058V75.874c0-0.276,0.224-0.5,0.5-0.5
			s0.5,0.224,0.5,0.5v20.647c0,9.18,2.853,17.715,5.496,20.359l0.953,0.998c5.172,5.188,10.266,7.309,17.564,7.309
			c0.023,0,0.046,0,0.069,0l19.61-0.042c8.491,0,16.677,1.429,25.763,4.497c7.883,2.68,15.143,6.134,22.195,10.56
			c2.092,1.298,4.186,2.666,6.211,3.988c3.91,2.555,7.955,5.196,12.153,7.446l3.915,2.027c3.284,1.631,6.643,2.756,10.261,3.435
			c3.197,0.573,6.424,0.674,9.724,0.732c2.536,0,6.343-0.125,10.024-0.246c1.907-0.062,3.782-0.124,5.434-0.167
			c0.321,0.001,0.506,0.212,0.513,0.487c0.007,0.276-0.211,0.505-0.487,0.513c-1.649,0.042-3.521,0.104-5.426,0.167
			C1527.271,158.704,1523.454,158.829,1520.894,158.829z"/>
	</g>
</g>
<g>
	<g>
		<path style="fill:#E4E4E3;" d="M1171.993,585.708h-39.339c-1.482,0-2.203-0.722-2.203-2.205v-82.165
			c0-1.481,0.721-2.202,2.203-2.202h39.339c1.481,0,2.201,0.72,2.201,2.202v82.165
			C1174.194,584.986,1173.475,585.708,1171.993,585.708z M1132.654,500.136c-0.934,0-1.203,0.27-1.203,1.202v82.165
			c0,0.935,0.27,1.205,1.203,1.205h39.339c0.921,0,1.201-0.281,1.201-1.205v-82.165c0-0.932-0.27-1.202-1.201-1.202H1132.654z"/>
	</g>
	<g>
		<path style="fill:#E4E4E3;" d="M1094.592,235.972c-0.005,0-0.011,0-0.016,0c-0.276-0.008-0.493-0.239-0.484-0.515
			c0.102-3.232,2.711-5.863,5.94-5.991c0.325-0.01,0.509,0.205,0.52,0.48c0.011,0.276-0.204,0.508-0.48,0.519
			c-2.707,0.107-4.895,2.313-4.979,5.023C1095.083,235.758,1094.861,235.972,1094.592,235.972z"/>
	</g>
	<g>
		<path style="fill:#E4E4E3;" d="M1100.052,209.455c-0.006,0-0.013,0-0.02,0c-3.229-0.127-5.839-2.755-5.94-5.982
			c-0.009-0.276,0.208-0.507,0.484-0.516c0.271-0.013,0.507,0.208,0.516,0.484c0.085,2.705,2.272,4.908,4.979,5.015
			c0.276,0.011,0.491,0.243,0.48,0.519C1100.541,209.244,1100.319,209.455,1100.052,209.455z"/>
	</g>
	<g>
		<path style="fill:#E4E4E3;" d="M1112.755,356.889c-0.006,0-0.012,0-0.018,0l-4.999-0.171c-2.52-0.096-4.596-2.036-4.837-4.512
			c-0.165-1.596-0.784-9.064-0.784-16.381c0-7.305,0.619-14.77,0.785-16.369c0.241-2.485,2.317-4.429,4.829-4.516l5.006-0.171
			c0.248-0.02,0.507,0.207,0.518,0.482c0.009,0.276-0.207,0.507-0.482,0.517l-4.999,0.171c-2.02,0.07-3.683,1.625-3.876,3.617
			c-0.165,1.591-0.78,9.006-0.78,16.269c0,7.273,0.615,14.692,0.779,16.281c0.193,1.984,1.857,3.536,3.872,3.613l5.004,0.171
			c0.275,0.009,0.491,0.241,0.482,0.517C1113.245,356.676,1113.023,356.889,1112.755,356.889z"/>
	</g>
	<g>
		<path style="fill:#E4E4E3;" d="M1112.755,399.466c-0.006,0-0.012,0-0.018,0l-4.999-0.172c-2.521-0.096-4.596-2.039-4.837-4.519
			c-0.165-1.597-0.784-9.065-0.784-16.374c0-7.31,0.619-14.777,0.785-16.377c0.241-2.481,2.317-4.421,4.829-4.507l5.006-0.18
			c0.248-0.031,0.507,0.206,0.518,0.481c0.01,0.276-0.206,0.508-0.482,0.518l-4.999,0.18c-2.02,0.069-3.684,1.621-3.876,3.608
			c-0.165,1.592-0.78,9.01-0.78,16.277c0,7.265,0.615,14.685,0.779,16.273c0.193,1.988,1.857,3.542,3.872,3.62l5.004,0.172
			c0.275,0.009,0.491,0.241,0.482,0.517C1113.245,399.253,1113.023,399.466,1112.755,399.466z"/>
	</g>
	<g>
		<path style="fill:#E4E4E3;" d="M1112.755,442.035c-0.006,0-0.012,0-0.018,0l-4.999-0.172c-2.519-0.086-4.595-2.029-4.837-4.519
			c-0.165-1.588-0.784-9.031-0.784-16.365c0-7.338,0.619-14.785,0.785-16.377c0.24-2.48,2.317-4.42,4.829-4.507l5.006-0.18
			c0.248-0.028,0.507,0.206,0.518,0.481c0.01,0.276-0.206,0.508-0.482,0.518l-4.999,0.18c-2.02,0.07-3.684,1.622-3.876,3.608
			c-0.165,1.585-0.78,8.982-0.78,16.277c0,7.292,0.615,14.685,0.779,16.265c0.194,1.996,1.857,3.551,3.87,3.62l5.006,0.172
			c0.275,0.009,0.491,0.241,0.482,0.517C1113.245,441.822,1113.023,442.035,1112.755,442.035z"/>
	</g>
	<g>
		<path style="fill:#E4E4E3;" d="M1112.755,136.191c-0.004,0-0.008,0-0.012,0l-6.844-0.164c-1.058-0.042-1.585-0.589-1.585-1.626
			v-5.835c0-1.048,0.527-1.6,1.567-1.642l6.861-0.156c0.273,0.012,0.507,0.212,0.512,0.489c0.006,0.276-0.213,0.505-0.488,0.511
			l-6.844,0.156c-0.506,0.02-0.608,0.128-0.608,0.643v5.835c0,0.501,0.103,0.606,0.608,0.627l6.844,0.164
			c0.276,0.007,0.495,0.236,0.488,0.512C1113.248,135.975,1113.025,136.191,1112.755,136.191z"/>
	</g>
	<g>
		<path style="fill:#E4E4E3;" d="M1191.743,106.787c-0.256,0-0.475-0.196-0.497-0.457c-0.03-0.35-0.068-0.698-0.106-1.048
			l0.992-0.129c0.041,0.378,0.079,0.734,0.11,1.09c0.024,0.275-0.18,0.518-0.455,0.542
			C1191.772,106.787,1191.758,106.787,1191.743,106.787z"/>
	</g>
	<g>
		<path style="fill:#E4E4E3;" d="M1189.202,96.658c-0.212,0-0.408-0.135-0.477-0.348c-0.12-0.249-0.015-0.542,0.233-0.663
			c0.253-0.12,0.55-0.01,0.67,0.237l-0.45,0.218l0.451-0.214c0.011,0.021,0.041,0.095,0.049,0.118
			c0.084,0.263-0.062,0.544-0.324,0.628C1189.304,96.65,1189.253,96.658,1189.202,96.658z"/>
	</g>
	<g>
		<path style="fill:#E4E4E3;" d="M1191.251,105.869l0.479-0.158l-0.501,0.037c-0.048-0.272,0.134-0.531,0.406-0.579
			c0.265-0.048,0.531,0.133,0.578,0.406l-0.492,0.086l0.501-0.042l-0.479,0.166L1191.251,105.869z"/>
	</g>
	<g>
		<path style="fill:#E4E4E3;" d="M1232.642,114.694c-0.238,0-0.496-0.002-0.729-0.004l-0.493-0.003
			c-0.495,0-0.976-0.007-1.463-0.016c-3.34-0.047-6.571-0.326-9.879-0.851c-4.922-0.811-9.935-2.185-15.778-4.327
			c-1.763-0.642-3.645-1.374-5.751-2.236c-0.941-0.385-1.883-0.777-2.81-1.177c-0.254-0.109-0.37-0.404-0.261-0.657
			c0.108-0.254,0.404-0.37,0.657-0.261c0.921,0.397,1.856,0.788,2.792,1.169c2.095,0.857,3.964,1.584,5.715,2.223
			c5.785,2.12,10.74,3.479,15.595,4.279c3.257,0.517,6.442,0.791,9.735,0.838c0.483,0.008,0.958,0.016,1.433,0.016l0.516,0.003
			c0.438,0.003,0.967,0.008,1.272-0.002c0.261-0.039,0.507,0.206,0.518,0.482c0.01,0.276-0.206,0.508-0.482,0.517
			C1233.074,114.692,1232.866,114.694,1232.642,114.694z"/>
	</g>
	<g>
		<path style="fill:#E4E4E3;" d="M1228.423,125.576c-0.097,0-0.193-0.027-0.278-0.085c-0.229-0.154-0.291-0.464-0.137-0.694
			c3.095-4.61,4.664-7.964,4.664-9.968c0.058-0.912,0.123-1.791,0.188-2.669c0.121-1.625,0.246-3.306,0.312-4.954
			c0.016-0.416,0.016-1.251,0.016-1.669c-0.022-1.067-0.2-2.101-0.528-3.062c-0.304-0.902-0.783-1.754-1.387-2.465
			c-0.573-0.688-1.229-1.219-1.955-1.582c-0.361-0.178-0.748-0.325-1.146-0.435c-0.523-0.152-1.038-0.248-1.658-0.357
			c-0.028-0.005-0.056-0.012-0.083-0.022c-5.847-1.003-11.854-2.478-18.361-4.506c-2.787-0.864-5.755-1.85-9.34-3.103
			c-3.159-1.111-6.305-2.254-9.45-3.397c-2.039-0.741-4.078-1.481-6.121-2.213c-1.696-0.61-3.392-1.211-5.096-1.806
			c-0.261-0.091-0.398-0.376-0.307-0.637c0.09-0.261,0.377-0.397,0.637-0.308c1.706,0.596,3.405,1.198,5.104,1.809
			c2.044,0.733,4.084,1.474,6.124,2.215c3.144,1.142,6.286,2.283,9.44,3.393c3.572,1.249,6.529,2.231,9.306,3.091
			c6.497,2.025,12.488,3.494,18.318,4.491c0.03,0.005,0.06,0.013,0.088,0.023c0.612,0.109,1.132,0.208,1.673,0.365
			c0.452,0.125,0.896,0.295,1.316,0.501c0.853,0.426,1.617,1.042,2.276,1.834c0.682,0.804,1.226,1.769,1.568,2.788
			c0.36,1.057,0.556,2.192,0.581,3.373c0,0.437,0,1.292-0.016,1.718c-0.067,1.667-0.192,3.356-0.314,4.99
			c-0.064,0.875-0.13,1.751-0.187,2.627c0.001,2.174-1.625,5.716-4.833,10.494C1228.741,125.499,1228.583,125.576,1228.423,125.576z
			"/>
	</g>
	<g>
		<path style="fill:#E4E4E3;" d="M1112.755,245.508h-0.563c-0.094,0-0.185-0.026-0.264-0.075c-5.969-3.71-9.774-8.294-12.342-14.862
			c-0.022-0.058-0.034-0.12-0.034-0.182v-21.855c0-0.062,0.012-0.124,0.034-0.182c2.562-6.558,6.369-11.142,12.341-14.862
			c0.079-0.049,0.171-0.076,0.265-0.076h0.563c0.276,0,0.5,0.224,0.5,0.5s-0.224,0.5-0.5,0.5h-0.42
			c-5.758,3.615-9.29,7.877-11.783,14.215v21.666c2.466,6.263,6.106,10.655,11.783,14.214h0.42c0.276,0,0.5,0.224,0.5,0.5
			S1113.031,245.508,1112.755,245.508z"/>
	</g>
	<g>
		<path style="fill:#E4E4E3;" d="M1077.312,246.673c-0.187,0-0.365-0.104-0.451-0.284c-4.2-8.773-5.837-16.323-5.837-26.929
			c0-10.611,1.639-18.161,5.845-26.929c0.119-0.25,0.422-0.353,0.667-0.234c0.249,0.119,0.354,0.418,0.235,0.667
			c-4.136,8.621-5.747,16.05-5.747,26.497c0,10.442,1.609,17.872,5.739,26.498c0.119,0.249,0.014,0.547-0.235,0.667
			C1077.458,246.658,1077.384,246.673,1077.312,246.673z"/>
	</g>
	<g>
		<path style="fill:#E4E4E3;" d="M1088.067,262.529c-0.349,0-1.056-0.016-1.413-0.032c-2.017-0.098-3.676-0.65-5.381-1.79
			c-0.336-0.229-0.636-0.464-0.928-0.699c-1.164-0.981-2.014-2.05-2.682-3.371c-0.195-0.373-0.369-0.729-0.543-1.086
			c-0.201-0.384-0.302-0.794-0.302-1.244v-69.704c0-0.452,0.097-0.853,0.306-1.261l0.061-0.12c0.146-0.293,0.294-0.587,0.447-0.886
			c0.007-0.02,0.015-0.039,0.024-0.058c0.676-1.32,1.553-2.42,2.683-3.363c0.289-0.241,0.586-0.466,0.893-0.691
			c1.767-1.173,3.425-1.722,5.421-1.81c0.356-0.016,1.064-0.023,1.414-0.023c2.198,0,4.124,0.71,5.105,1.318
			c1.291,0.804,1.919,1.846,1.919,3.187v77.112c0,1.346-0.628,2.391-1.919,3.194
			C1092.186,261.815,1090.257,262.529,1088.067,262.529z M1078.538,182.759L1078.538,182.759c-0.157,0.308-0.309,0.611-0.459,0.912
			l-0.062,0.124c-0.14,0.273-0.198,0.514-0.198,0.81v69.704c0,0.288,0.062,0.54,0.194,0.792c0.176,0.361,0.346,0.708,0.523,1.048
			c0.624,1.235,1.396,2.204,2.445,3.088c0.263,0.212,0.541,0.431,0.828,0.627c1.564,1.045,3.066,1.546,4.89,1.634
			c0.343,0.015,1.028,0.031,1.367,0.031c1.979,0,3.703-0.634,4.578-1.177c1-0.622,1.446-1.345,1.446-2.344v-77.112
			c0-0.994-0.446-1.714-1.447-2.337c-0.868-0.538-2.589-1.167-4.577-1.167c-0.338,0-1.022,0.006-1.369,0.022
			c-1.805,0.08-3.307,0.578-4.87,1.614c-0.293,0.215-0.574,0.428-0.848,0.656c-1.03,0.86-1.8,1.821-2.419,3.023
			C1078.555,182.725,1078.547,182.742,1078.538,182.759z"/>
	</g>
	<g>
		<path style="fill:#E4E4E3;" d="M1191.886,157.366c-0.269,0-0.49-0.212-0.5-0.482c-0.01-0.276,0.206-0.508,0.482-0.518l7.807-0.282
			c0.998-0.033,1.399-0.351,1.653-1.311c0.957-3.635,1.415-7.152,1.415-10.808c0-3.66-0.458-7.18-1.399-10.762
			c-0.271-1.013-0.673-1.332-1.667-1.364l-7.809-0.273c-0.276-0.009-0.492-0.241-0.482-0.517c0.011-0.275,0.261-0.484,0.518-0.482
			l7.807,0.273c1.44,0.046,2.214,0.66,2.585,2.053c0.979,3.722,1.448,7.325,1.448,11.071c0,3.742-0.469,7.343-1.433,11.008
			c-0.384,1.448-1.157,2.063-2.602,2.109l-7.806,0.282C1191.897,157.366,1191.892,157.366,1191.886,157.366z"/>
	</g>
	<g>
		<path style="fill:#E4E4E3;" d="M1149.019,252.478c-2.017,0-3.913-0.784-5.341-2.209c-1.438-1.435-2.229-3.348-2.229-5.386v-33.823
			c0-4.184,3.403-7.587,7.586-7.587h6.579c4.188,0,7.595,3.404,7.595,7.587v33.823c0,2.036-0.792,3.947-2.229,5.382
			c-1.431,1.427-3.33,2.213-5.351,2.213c-0.005,0-0.011,0-0.016,0h-6.578C1149.029,252.478,1149.023,252.478,1149.019,252.478z
			 M1149.033,251.478h6.58c0.005,0,0.009,0,0.014,0c1.755,0,3.403-0.682,4.645-1.921c1.249-1.246,1.937-2.906,1.937-4.674v-33.823
			c0-3.632-2.958-6.587-6.595-6.587h-6.579c-3.632,0-6.586,2.955-6.586,6.587v33.823c0,1.771,0.688,3.433,1.937,4.679
			c1.238,1.236,2.884,1.917,4.635,1.917C1149.024,251.478,1149.028,251.478,1149.033,251.478z"/>
	</g>
	<g>
		<path style="fill:#E4E4E3;" d="M1155.627,484.072c-0.005,0-0.01,0-0.015,0h-6.578c-0.005,0-0.01,0-0.015,0
			c-2.018,0-3.915-0.785-5.344-2.21c-1.437-1.434-2.228-3.343-2.228-5.377v-33.823c0-4.184,3.403-7.587,7.586-7.587h6.579
			c4.188,0,7.595,3.404,7.595,7.587v33.823c0,2.031-0.791,3.939-2.228,5.373C1159.55,483.286,1157.648,484.072,1155.627,484.072z
			 M1149.033,483.072h6.58c0.004,0,0.009,0,0.013,0c1.756,0,3.406-0.682,4.648-1.922c1.247-1.245,1.934-2.901,1.934-4.665v-33.823
			c0-3.632-2.958-6.587-6.595-6.587h-6.579c-3.632,0-6.586,2.955-6.586,6.587v33.823c0,1.766,0.687,3.424,1.934,4.669
			c1.24,1.237,2.887,1.918,4.639,1.918C1149.025,483.072,1149.029,483.072,1149.033,483.072z"/>
	</g>
	<g>
		<path style="fill:#E4E4E3;" d="M1128.087,76.367c-0.004,0-0.009,0-0.013,0c-0.276-0.007-0.494-0.237-0.487-0.513l0.117-4.53
			c0.071-2.084,1.027-3.075,3.102-3.216c0.543-0.043,1.123-0.063,1.817-0.063h21.12c1.812,0,3.276,1.416,3.333,3.222l0.108,4.062
			c0.007,0.276-0.211,0.506-0.486,0.513c-0.005,0-0.01,0-0.014,0c-0.271,0-0.492-0.215-0.5-0.487l-0.108-4.06
			c-0.039-1.261-1.064-2.251-2.333-2.251h-21.12c-0.668,0-1.222,0.02-1.743,0.061c-1.575,0.107-2.123,0.675-2.176,2.249
			l-0.117,4.525C1128.58,76.151,1128.357,76.367,1128.087,76.367z"/>
	</g>
	<g>
		<path style="fill:#E4E4E3;" d="M1157.827,647.902h-25.204c-11.231,0-20.368-9.138-20.368-20.369V95.211
			c0-11.231,9.137-20.369,20.368-20.369h25.204c3.999,0,7.769,0.644,11.524,1.968c13.777,4.881,23.034,17.981,23.034,32.599v503.919
			c0,14.579-9.213,27.648-22.934,32.555c-0.031,0.021-0.064,0.038-0.101,0.051C1165.598,647.258,1161.828,647.902,1157.827,647.902z
			 M1132.623,75.842c-10.68,0-19.368,8.689-19.368,19.369v532.322c0,10.68,8.688,19.369,19.368,19.369h25.204
			c3.846,0,7.471-0.612,11.078-1.872c0.051-0.035,0.108-0.061,0.171-0.074c13.347-4.753,22.31-17.455,22.31-31.628V109.409
			c0-14.195-8.988-26.916-22.367-31.656c-3.646-1.286-7.308-1.911-11.191-1.911H1132.623z"/>
	</g>
	<g>
		<path style="fill:#E4E4E3;" d="M1191.682,106.185c-0.155,0-0.307-0.074-0.4-0.215l-0.016-0.023
			c-0.153-0.23-0.091-0.54,0.139-0.693c0.228-0.152,0.538-0.092,0.693,0.139c0.153,0.23,0.099,0.552-0.131,0.705
			C1191.878,106.156,1191.779,106.185,1191.682,106.185z"/>
	</g>
	<g>
		<path style="fill:#E4E4E3;" d="M1190.801,103.187l0.457-0.202l-0.461,0.193c-0.123-0.247-0.023-0.547,0.224-0.671
			c0.248-0.123,0.547-0.024,0.671,0.224l-0.433,0.255L1190.801,103.187z"/>
	</g>
	<g>
		<path style="fill:#E4E4E3;" d="M1171.055,258.766h-37.461c-0.276,0-0.5-0.224-0.5-0.5s0.224-0.5,0.5-0.5h37.461
			c0.276,0,0.5,0.224,0.5,0.5S1171.331,258.766,1171.055,258.766z"/>
	</g>
	<g>
		<path style="fill:#E4E4E3;" d="M1171.055,429.785h-37.461c-0.276,0-0.5-0.224-0.5-0.5s0.224-0.5,0.5-0.5h37.461
			c0.276,0,0.5,0.224,0.5,0.5S1171.331,429.785,1171.055,429.785z"/>
	</g>
	<g>
		<path style="fill:#E4E4E3;" d="M1171.055,490.361h-37.461c-0.276,0-0.5-0.224-0.5-0.5s0.224-0.5,0.5-0.5h37.461
			c0.276,0,0.5,0.224,0.5,0.5S1171.331,490.361,1171.055,490.361z"/>
	</g>
	<g>
		<path style="fill:#E4E4E3;" d="M1171.055,198.183h-37.461c-0.276,0-0.5-0.224-0.5-0.5s0.224-0.5,0.5-0.5h37.461
			c0.276,0,0.5,0.224,0.5,0.5S1171.331,198.183,1171.055,198.183z"/>
	</g>
	<g>
		<path style="fill:#E4E4E3;" d="M1176.431,590.995h-48.22c-2.028-0.009-2.996-0.954-3.049-2.975V111.904c0-0.001,0-0.003,0-0.004
			c0.016-1.79,0.558-3.091,1.812-4.354c1.275-1.259,2.578-1.798,4.357-1.805h41.984c3.398,0,6.163,2.765,6.163,6.163v476.104
			C1179.425,590.041,1178.456,590.986,1176.431,590.995z M1126.162,111.904v476.104c0.039,1.476,0.557,1.98,2.051,1.987h48.216
			c1.492-0.007,2.011-0.512,2.05-2.001v-476.09c0-2.847-2.316-5.163-5.163-5.163h-41.982c-1.512,0.006-2.57,0.445-3.653,1.514
			C1126.617,109.323,1126.177,110.382,1126.162,111.904L1126.162,111.904z"/>
	</g>
	<g>
		<path style="fill:#E4E4E3;" d="M1152.328,403.91c-4.675,0-8.479-3.804-8.479-8.479s3.804-8.479,8.479-8.479
			c4.68,0,8.486,3.803,8.486,8.479S1157.008,403.91,1152.328,403.91z M1152.328,387.952c-4.124,0-7.479,3.355-7.479,7.479
			c0,4.124,3.354,7.479,7.479,7.479c4.128,0,7.486-3.355,7.486-7.479C1159.814,391.307,1156.456,387.952,1152.328,387.952z"/>
	</g>
	<g>
		<path style="fill:#E4E4E3;" d="M1155.428,298.801h-6.199c-1.384,0-2.51-1.125-2.51-2.509v-6.199c0-1.384,1.126-2.51,2.51-2.51
			h6.199c1.383,0,2.508,1.126,2.508,2.51v6.199C1157.936,297.676,1156.811,298.801,1155.428,298.801z M1149.229,288.584
			c-0.832,0-1.51,0.677-1.51,1.51v6.199c0,0.832,0.678,1.509,1.51,1.509h6.199c0.831,0,1.508-0.677,1.508-1.509v-6.199
			c0-0.833-0.677-1.51-1.508-1.51H1149.229z"/>
	</g>
	<g>
		<path style="fill:#E4E4E3;" d="M1155.428,321.502h-6.199c-1.384,0-2.51-1.126-2.51-2.51v-6.198c0-1.384,1.126-2.51,2.51-2.51
			h6.199c1.383,0,2.508,1.126,2.508,2.51v6.198C1157.936,320.376,1156.811,321.502,1155.428,321.502z M1149.229,311.284
			c-0.832,0-1.51,0.677-1.51,1.51v6.198c0,0.833,0.678,1.51,1.51,1.51h6.199c0.831,0,1.508-0.677,1.508-1.51v-6.198
			c0-0.833-0.677-1.51-1.508-1.51H1149.229z"/>
	</g>
	<g>
		<path style="fill:#E4E4E3;" d="M1155.425,344.206h-6.193c-1.383,0-2.508-1.125-2.508-2.508v-6.201
			c0-1.383,1.125-2.508,2.508-2.508h6.193c1.382,0,2.507,1.125,2.507,2.508v6.201
			C1157.932,343.081,1156.807,344.206,1155.425,344.206z M1149.231,333.988c-0.831,0-1.508,0.677-1.508,1.508v6.201
			c0,0.832,0.677,1.508,1.508,1.508h6.193c0.831,0,1.507-0.677,1.507-1.508v-6.201c0-0.832-0.676-1.508-1.507-1.508H1149.231z"/>
	</g>
	<g>
		<path style="fill:#E4E4E3;" d="M1155.433,366.915h-6.202c-1.382,0-2.507-1.125-2.507-2.508v-6.192
			c0-1.388,1.125-2.517,2.507-2.517h6.202c1.383,0,2.508,1.129,2.508,2.517v6.192C1157.94,365.79,1156.815,366.915,1155.433,366.915
			z M1149.23,356.697c-0.816,0-1.507,0.695-1.507,1.517v6.192c0,0.832,0.676,1.508,1.507,1.508h6.202
			c0.831,0,1.508-0.677,1.508-1.508v-6.192c0-0.836-0.677-1.517-1.508-1.517H1149.23z"/>
	</g>
	<g>
		<path style="fill:#E4E4E3;" d="M1112.755,503.221l-7.358-0.008c-1.051-0.031-1.582-0.581-1.582-1.634v-31.774
			c0-1.046,0.529-1.599,1.574-1.642l0.329-0.008h7.037c0.276,0,0.5,0.224,0.5,0.5s-0.224,0.5-0.5,0.5l-7.334,0.007
			c-0.503,0.021-0.606,0.128-0.606,0.642v31.774c0,0.512,0.103,0.619,0.609,0.634l0.318,0.008h7.013c0.276,0,0.5,0.224,0.5,0.5
			S1113.031,503.221,1112.755,503.221z"/>
	</g>
	<g>
		<path style="fill:#E4E4E3;" d="M1191.9,201.938c-0.001,0-0.002,0-0.004,0c-0.275-0.002-0.498-0.228-0.496-0.503
			c0.018-2.551,0.157-4.882,0.427-7.127c0.28-2.291,0.677-4.358,1.211-6.322c1.066-3.959,2.833-8.054,5.253-12.168
			c2.042-3.455,4.517-6.913,7.789-10.883c2.958-3.596,6.142-7.085,9.221-10.459c1.84-2.016,3.742-4.101,5.574-6.183
			c1.316-1.511,2.861-3.308,4.323-5.173c1.29-1.639,2.494-3.312,3.582-4.972c1.038-1.574,1.96-3.147,2.741-4.678
			c0.362-0.702,0.695-1.393,0.989-2.056c0.009-0.021,0.02-0.041,0.031-0.059c0.161-0.35,0.297-0.705,0.384-1.004
			c0.217-0.73,0.302-1.28,0.278-1.784c-0.028-0.525-0.17-1.024-0.41-1.44c-0.254-0.437-0.617-0.813-1.022-1.058
			c-0.228-0.142-0.457-0.247-0.687-0.318c-0.306-0.097-0.557-0.146-0.793-0.158c-0.274-0.016-1.086-0.013-1.087-0.016
			c-2.901,0-5.793,0.016-8.687,0.039c-0.496,0-1.154-0.023-1.527-0.04c-1.647-0.083-3.333-0.335-5.156-0.772
			c-1.767-0.42-3.51-0.981-5.181-1.667c-1.625-0.669-2.995-1.383-4.188-2.183c-0.545-0.358-1.098-0.777-1.688-1.278
			c-0.478-0.413-0.955-0.878-1.461-1.424c-0.02-0.016-0.039-0.034-0.056-0.053c-0.995-1.098-1.859-2.349-2.57-3.719
			c-0.371-0.729-0.692-1.46-0.956-2.178c-0.141-0.367-0.268-0.741-0.395-1.114c-0.094-0.3-0.178-0.588-0.262-0.877l-0.12-0.409
			c-0.007-0.024-0.013-0.048-0.016-0.073c-0.211-0.773-0.489-1.59-0.901-2.64c-0.39-0.992-0.859-2.062-1.433-3.27
			c-1.123-2.338-2.414-4.66-3.835-6.9c-1.338-2.125-2.806-4.177-4.362-6.102c-0.761-0.943-1.538-1.851-2.312-2.7
			c-0.724-0.789-1.474-1.523-2.377-2.384c-0.2-0.19-0.208-0.507-0.018-0.707c0.192-0.2,0.509-0.207,0.707-0.018
			c0.919,0.875,1.683,1.624,2.425,2.434c0.789,0.865,1.579,1.788,2.353,2.746c1.581,1.955,3.071,4.04,4.429,6.196
			c1.441,2.271,2.751,4.628,3.893,7.004c0.584,1.231,1.062,2.321,1.461,3.335c0.435,1.107,0.727,1.967,0.948,2.791
			c0.005,0.018,0.009,0.036,0.012,0.054l0.106,0.364c0.082,0.282,0.164,0.563,0.252,0.845c0.12,0.351,0.243,0.712,0.381,1.074
			c0.256,0.696,0.552,1.372,0.909,2.072c0.658,1.27,1.458,2.433,2.376,3.455c0.019,0.015,0.035,0.03,0.051,0.047
			c0.496,0.54,0.961,0.995,1.421,1.392c0.556,0.472,1.077,0.867,1.591,1.204c1.141,0.765,2.453,1.448,4.015,2.091
			c1.622,0.666,3.315,1.21,5.032,1.619c1.764,0.422,3.39,0.666,4.972,0.746c0.359,0.016,0.998,0.039,1.477,0.039
			c2.892-0.023,5.787-0.039,8.69-0.039c0,0,0.859,0,1.141,0.017c0.314,0.015,0.655,0.081,1.036,0.202
			c0.31,0.095,0.617,0.236,0.912,0.42c0.549,0.331,1.023,0.82,1.365,1.41c0.319,0.553,0.507,1.207,0.543,1.89
			c0.03,0.625-0.067,1.276-0.316,2.117c-0.105,0.362-0.271,0.791-0.466,1.205c-0.006,0.014-0.014,0.028-0.021,0.041
			c-0.296,0.664-0.628,1.353-0.987,2.049c-0.797,1.561-1.737,3.167-2.796,4.771c-1.102,1.683-2.323,3.379-3.631,5.04
			c-1.476,1.882-3.03,3.692-4.357,5.214c-1.839,2.091-3.744,4.179-5.587,6.199c-3.071,3.365-6.246,6.844-9.188,10.42
			c-3.238,3.929-5.685,7.346-7.699,10.755c-2.373,4.036-4.105,8.047-5.149,11.921c-0.521,1.919-0.909,3.94-1.184,6.182
			c-0.265,2.206-0.401,4.5-0.419,7.014C1192.398,201.716,1192.175,201.938,1191.9,201.938z"/>
	</g>
</g>
</svg>
